<?xml version="1.0" encoding="UTF-8"?><svg id="Layer_1" xmlns="http://www.w3.org/2000/svg" viewBox="0 0 1000 356.06"><defs><style>.cls-1{fill:#fd8c71;}.cls-2{fill:#a70d4e;}.cls-3{fill:#fff;}.cls-4{fill:#111537;}.cls-5{fill:#de253a;}.cls-6{fill:#ce1842;}</style></defs><rect class="cls-4" width="1000" height="356.06"/><g><g><g><path class="cls-3" d="M516.94,68.33c0,8.04-.89,19.21-4.69,53.6-1.12,8.49-2.23,18.99-2.68,23.23-.45,4.47-.89,8.93-1.12,10.5-.67,5.81-2.01,17.2-2.23,18.99-.22,1.12-.45,3.13-.45,4.47-.22,1.56-.67,2.9-1.12,3.13-.45,.45-.45-.45-.22-2.9,.22-2.68,.22-3.57-.45-3.57-.45,0-.89,.67-.89,1.12-.22,4.47-.45,5.36-1.12,5.81-1.12,.67-1.79-.22-1.34-2.46,.22-1.56,.22-2.23-.22-1.56-.67,.89-1.79,.22-1.34-1.12,0-.45,0-.89,.22-1.34,0-.22,.22,0,.67,.67q.89,.89,.89-.22c0-.67-.45-1.56-.89-2.01s-.67-1.34-.67-2.23c0-.67,0-1.79-.22-2.23-.45-.89-.45-1.34,0-1.56,.89-.22,.89-1.79,.22-1.79s-.22-4.91,.22-5.58c.45-.45,.45-1.12,0-2.01-.67-1.79-1.56-1.56-1.34,0,.22,.89,0,1.34-.22,1.34s-.22,.89,0,2.01c0,.89,0,1.79-.22,2.23-.22,.22-.67,2.01-1.12,3.13,0,1.79-.45,2.9-.89,3.35-.22,0-.22,.89-.22,1.79,.45,1.12,.22,1.56-.45,1.56-.45,0-.45,.22,0,.67s.45,1.12,0,1.79c-.45,.89-.45,1.12,.22,1.56,.67,.45,.22,.89-.67,.67-.22,0-.45,1.12-.45,2.23,0,1.79,0,2.23-.45,1.56-.89-1.34-.89-.22,0,1.34,.67,.89,.67,1.12-.45,1.79-.45,.45-1.34,.67-1.56,.67q-.45,0,0-.22c.45-.22,.89-.45,.89-.67,0-.45-.45-.45-.67-.45-.67,.67-.67,0,0-1.34,.45-.89,.45-1.34,.22-1.79-.89-.67-2.46,1.56-2.01,2.9,0,.22,0,.67-.22,.67s-.67,.45-1.12,.89q-.22,.89,.45,.22c1.12-1.12,1.56-.67,.89,1.12-.22,.89-.45,2.01-.22,2.46,.22,.45,0,.89-.22,.67-.45,0-.89,.45-.67,.89,.22,2.23,.22,2.9-.22,6.48,0,2.23-.45,3.8-.89,3.8,0,.22-.22,.89,0,1.79,0,.89,0,1.34-.45,1.12-.67-.67-.67-.45,0,1.56,.67,1.79-.22,2.46-1.56,1.12q-.67-1.12-.67,.22c0,.67,.22,1.34,.67,1.79,1.34,1.12,1.12,2.23-.45,2.23q-.89,0-.22,.45c.22,.45,.45,.67,0,.67-.22,0-.67,.67-.89,1.79-.22,1.34,0,2.01,.67,2.46,.89,.89,.67,.89-.45,.89s-1.56,.22-1.34,1.34c.22,.89-.22,1.34-1.12,1.56l-1.12,.45,1.34,.45c.67,.45,1.12,.89,.67,1.56,0,.89-.45,1.12-.67,.89q-.45,0-.45,.45c0,.22,.22,.67,.45,.67,.45,.45,.45,.89,0,1.56-.22,.45-.45,1.56-.45,2.23,0,.89-.45,1.12-1.12,.89-.45,0-1.56,.22-2.23,.67-.89,.45-2.01,.45-2.46,.22-.45-.45,0-9.83,1.56-23.9,0-1.56,0-2.23-.67-2.23s-.89-.22-.67-.67c.22-.45,.45-1.79,.45-2.9s.22-1.79,.67-1.79c.22,.22,.45,.22,.67,0,.22-.45,0-.67-.22-.67-.45,0-.67-1.12-.22-4.24,.45-4.69,.45-6.48,.89-6.92v-2.01c0-.89,.22-5.58,.89-10.72,.22-4.91,.89-10.5,1.12-12.06,0-1.56,.45-6.92,.89-12.06,.45-4.91,1.34-13.85,2.01-19.66,.67-5.81,1.12-10.94,1.12-11.39,0-1.34-4.02,6.03-14.52,26.58-4.91,9.6-6.03,11.84-5.14,12.51,.45,0,.67,.67,.67,1.12s-.45,.67-1.12,.45-1.56-.22-2.01,0c-.67,.67-4.02,.67-5.36,0q-2.9-.89-2.68,.89c.45,1.79-.89,2.01-2.23,.22-.45-.67-1.12-1.56-1.34-1.56-.45,0-.45,.45,0,.89,.89,.89,.89,2.46-.22,2.46-.45,0-.67,.45-.45,.89,.45,.45,.22,.45-.45,0-.89-.67-1.12-.67-1.34,0-.22,.67-.67,.89-1.56,.89s-1.56,.22-1.56,.67c0,.22-.45,.45-1.12,.22-.67-.22-1.56,0-1.79,.22q-.89,.67-1.34,0c-.22-.67-.45-.89-.67-.67-.45,.22-1.12-.45-1.56-1.12-.67-1.34-3.8-9.38-4.91-13.85-1.34-4.24-9.83-32.16-10.27-33.28-.45-.89-.67,.89-2.01,10.72-2.23,16.98-4.47,34.17-5.14,40.2-.67,3.8-1.34,10.27-1.79,14.07-.89,8.04-1.79,18.54-1.56,21.67,0,.89-.45,1.79-.89,2.01-.45,.22-.67-.22-.67-.67s-.22-.89-.45-.89-.45,.45-.45,.89-.45,.89-.89,.89-.89-.45-.89-.89-.22-.89-.67-.89c-.22,0-.45,.45-.45,.89,0,1.12-1.12,1.12-1.34,0-.22-.45-.45-.45-1.56,0-3.57,1.79-13.18,2.68-14.52,1.34-.89-.89-.67-8.71,.22-23.01,1.56-21.44,6.03-52.71,10.5-75.05,.22-1.56,.45-3.13,.45-3.8,0-.45,.22-1.56,.45-2.01,.22-.45,.67-2.23,.89-4.24,.22-1.79,.67-3.35,.89-3.57,.22,0,.22-1.12,.22-2.46-.45-1.79-.22-2.01,.67-1.56,.67,.22,.89,0,.89-1.79-.22-1.12,0-2.01,0-2.23v-.89c.22,0,.45-.45,.67-.89,0-.45,.45-2.01,.89-4.24,.22-2.01,.67-3.8,1.12-4.24,0-.45-.22-.89-.67-.89-.67,0-.67-.45-.67-1.79,.22-1.12,.45-1.34,.89-.89,.45,.67,.45,.45,.45-.67-.22-.89-.22-1.79,0-1.79,.45,0,.45-1.56-.67-7.37-.22-.67,.22-1.12,1.12-1.34,2.23-.67,16.53-.22,17.2,.67,.45,.22,.89,0,1.34-.67,.45-.89,1.56-1.12,4.47-1.12,2.46-.22,4.02,0,4.47,.45,0,.22,0,.45-.45,.45s-.45,.45,0,1.12c3.35,5.81,11.17,29.04,17.87,52.71,.89,3.57,2.01,6.7,2.01,6.7,.22,.22,3.13-4.69,6.48-10.72,8.71-14.96,16.53-28.81,20.33-35.07,.45-1.12,1.79-3.13,2.46-4.47,.67-1.56,2.46-4.24,3.57-6.03,1.34-1.79,2.46-4.24,3.13-5.58,1.12-2.23,3.13-4.02,4.02-3.13,.22,.22,1.56,.22,2.68,.22,1.34,.22,2.46,.45,2.68,.89,0,.45,.45,.67,.89,.67s.89,.22,.89,.67c0,.22,.45,.45,1.12,.22,.67-.22,1.56,0,2.68,.45,.89,.67,1.79,.89,2.46,.45,1.56-.67,4.47-.45,6.48,.45q1.56,.89,1.56,6.48Zm-100.06,28.81c-.22-.22-.89,0-1.34,.67-.22,.67-.45,1.34-.22,1.79q.22,.45-.22,.22c-.89-.45-.89-2.68,0-3.57,.45-.22,.45-.67,.22-.67s-.45-1.12-.45-2.68c.22-2.46-.45-3.13-.67-.89,0,.67-.45,2.46-.67,4.02-.22,1.79-.45,3.35-.45,3.8,.22,.22,0,1.12-.45,2.01-.22,.89-.22,1.56,0,2.01,.67,.22,.89-.22,1.56-2.46,.22-.89,.45-.67,1.12,.22,.22,.67,.45,1.12,.22,1.12-.22,.45-.67,2.01-.89,3.8-.45,5.14-.89,7.59-1.34,7.82-.67,.45,0,3.57,.45,3.57,.89,0,.89,1.56-.22,2.46-.45,.67-.67,1.56-.45,2.9,0,1.56,0,2.01-.45,1.79s-.45-.22-.22,.45c.22,.22,.67,.89,.67,1.12v.67c.22,.22,.45,.22,.67,0,.45-.22,.67-1.12,.67-2.23s-.22-2.01-.67-2.01c-.22,0-.45-.22-.45-.67,0-.22,.45-.22,.89,0,.89,.22,1.12-.67,.89-2.9,0-.45,.22-.89,.45-.89,1.12,0,1.79-3.35,.89-4.47-.45-.45-.45-.67,0-.67,.67,0,2.01-3.8,2.23-7.15,.22-2.01-1.12-7.82-1.79-9.16Zm-3.13-7.15c.45-.45,.67-.89,.45-.89-.22-.45-.67,0-1.34,.45-1.12,1.12-.45,1.34,.89,.45Zm6.25,35.74c-.45-.22-.45,0-.45,.67,0,.89,0,1.12,.45,.67v-1.34Zm.45-2.46c0-.45-.22-.67-.45-.45s-.45,.67-.22,.89c.45,.67,.67,.67,.67-.45Zm1.79-8.71c0-.67-.22-1.12-.45-1.12-.67,0-1.34,2.9-1.34,5.36,0,1.56,.22,1.56,.89-.89,.45-1.34,.89-2.9,.89-3.35Zm11.84-50.7s-.22-.45-.45-.67c-.45,0-.67,0-.67,.22,0,.45,.22,.67,.67,.67,.22,0,.45,0,.45-.22Zm.45-1.79c-.45-.22-.67-.22-1.12,0-.45,.22-.22,.22,.45,.22,.45,0,.67,0,.67-.22Zm2.9,32.61c-.45-.89-.45-1.12-.45-.22s.45,1.79,.89,1.56c.22-.22,0-.89-.45-1.34Zm1.12,3.57q-.45-.45-.45,.22c0,.67,0,1.12,.22,.89s.22-.89,.22-1.12Zm4.69,15.63c-.45-.45-.67-.22-.22,.89,0,.67,.45,.89,.45,.67,0-.45,0-1.12-.22-1.56Zm2.01,7.59c-.45-.89-.45-.67-.22,.45q.22,2.01,.45,1.34c.45-.45,.22-1.34-.22-1.79Zm3.13,10.27c-1.56-5.58-2.01-6.48-1.56-4.02,.45,2.68,.45,2.9,1.12,4.47,0,.45,.22,1.34,0,1.56-.22,.22,0,.67,.22,.89,.22,.22,.45,.45,0,.89-.22,.45,0,.45,.45,0,.67-.45,.45-1.34-.22-3.8Zm3.35-14.29c-.22-.67-.45-1.12-.67-.89-.22,.22,.22,2.01,.67,2.01v-1.12Zm2.01,7.37c0-.67-.22-1.12-.45-1.12,0,0-.22,.45-.22,1.12s.45,.89,.67,.89,.22-.22,0-.89Zm22.34,85.32v-1.34c.45-1.12,.45-.89,.67,.22,0,1.56-.22,2.01-.67,1.12Zm4.69,17.2q-1.12,.89-1.79-.45c-.67-2.01-1.12-2.01-1.12-.22,0,1.34,.67,1.79,2.68,1.79q.45,0,.45-.45c-.22-.22-.22-.45,.22-.45,.22,0,.67-.22,.67-.67s-.45-.22-1.12,.45Zm5.36-22.56c0-.67-.22-1.34-.22-1.56-.45-.22-.45,.45-.67,1.34,0,.89,.22,1.56,.22,1.56,.45,0,.67-.67,.67-1.34Zm1.34-9.38c0-.22-.22-.45-.67-.45s-.45,.22-.22,.45c.22,.45,.45,.67,.67,.67,0,0,.22-.22,.22-.67Zm.45-1.12c0-.22-.22-.45-.45-.67-.22-.22-.67,0-.67,.22s.45,.45,.67,.45h.45Zm3.35,6.7c-.45,.45-.45,.89-.22,1.12,.22,.45,0,.67-.45,.67-.67,0-.89-.22-.67-1.34,.22-.89,.67-1.79,.89-2.23q.45-.45,.22,.45c-.22,.45-.22,.89,.22,.89q.89,0,0,.45Zm.89-8.04c-.45,2.46-1.56,2.68-1.34,.22,0-.89,.45-2.01,.89-2.01s.45,.67,.45,1.79Zm.45-4.24c.22,.89,.22,1.12,0,1.12-.45,0-.89-.22-1.12-.89-.45-1.34,.22-1.56,1.12-.22Zm1.12-21s-.45-.22-.67-.67c-.22,0-.45,0-.45,.45,0,.22,.22,.45,.45,.45s.67,0,.67-.22Zm7.82-25.91c.22-.22,.22-.89,0-1.79-.45-.45-.45-1.12-.22-1.34,.67-.67,.45-4.91-.22-4.91-.22,0-.45,1.34-.45,3.35s-.22,4.24-.45,4.91c-.22,.89-.67,3.57-.67,6.03-.22,2.46-.45,5.14-.45,5.81,0,.89-.22,1.79-.45,2.23,0,.45-.22,.67-.45,.45-.22-.22-.67,0-.67,.22,0,.45,1.79,1.12,2.01,.89,.22-.22,.45-1.56,.45-3.35,.45-7.37,1.12-12.51,1.56-12.51Zm-4.02,33.28c0-.45,.45-.89,.67-.67s.45,.67,.22,.89c-.45,.89-.89,.67-.89-.22Zm1.79,8.26c-.22,.67-.45,1.56-.22,1.79,0,.22,0,.45-.45,.45-.22,.45-.45,0-.45-.22-.22-.45-.22-1.34-.22-1.79-.22-.45,0-1.12,.22-1.34,.22-.22,.45-.67,.45-1.56v-1.12l.67,1.12c.22,.89,.22,1.79,0,2.68Zm2.23,2.01c0,.45-.45,2.01-.45,3.57-.45,2.01-.67,2.46-1.34,2.23-.67-.45-.67-.67,0-1.34,.45-.89,.45-1.12,0-1.12-.67,0-.22-2.46,.67-3.57,.22-.22,.22-.89,0-1.12-.22-.22,0-.45,.45-.22,.45,.22,.67,.89,.67,1.56Zm-1.56,9.83c.45,.89,0,1.12-.45,.22-.22-.22-.22-.67-.22-.67,.22-.22,.45,0,.67,.45Zm.45-33.06c-.45,.22-.67,.67-.67,.89,0,.67,.45,.45,.67-.45,.45-.45,.22-.67,0-.45Zm1.56-31.94c-.45-.22-.45,0-.45,.67,0,.89,0,1.12,.45,.67v-1.34Zm0,31.05c-.45-.67-.45-.45-.45,.22s0,1.12,.22,.67c.22,0,.22-.67,.22-.89Zm0,46.01c0,.22,0,.89-.22,1.12s-.22-.22-.22-.89,0-.67,.45-.22Zm.89-81.3c-.22-.22-.67-.45-.89-.22-.45,.22-.45,.89-.22,1.56,.22,.67,.67,.89,.89,.22,.22-.45,.22-.89,.22-1.56Zm.22-4.69q0-1.79-.45-.45c-.22,.67-.22,1.56-.22,1.79,.45,1.12,.67,.45,.67-1.34Zm1.56,47.13c-.45,0-.67,.89-.67,1.79,0,.67-.22,2.23-.45,3.13-.22,1.56,0,2.01,.45,2.01s.89-.67,.89-1.34,0-2.23,.22-3.57c.22-1.79,0-2.46-.45-2.01Zm-.89-56.28c0,.45,.22,.89,.22,.67,.22-.22,.22-.67,0-1.12,0-.45-.22-.22-.22,.45Zm.45,76.16c-.22,.67-.45,.67-.45-.45,0-.89,.22-1.34,.45-1.34,.67,0,.67,.67,0,1.79Zm1.12-21.22c-.45,0-.89-.22-1.34,0-.22,.22,0,.45,.45,.45,.67,0,.89-.22,.89-.45Zm.67-4.69c0-.22-.22-.45-.67-.45-.22,0-.45,.22-.45,.45,0,.45,.22,.67,.45,.67,.45,0,.67-.22,.67-.67Zm-.67,1.12c-.22,0-.45,.22-.45,.45,0,.45,0,.67,.22,.67s.45-.22,.67-.67c0-.22,0-.45-.45-.45Zm1.12-5.58c0-.22-.22-.67-.45-.67s-.67,.45-.67,.67c0,.45,.45,.45,.67,.45s.45,0,.45-.45Zm-.45,1.12c-.22,0-.67,.22-.67,.45,0,.45,.22,.67,.45,.67,0,0,.22-.22,.45-.67,.22-.22,0-.45-.22-.45Zm.45-4.47c-.22,0-.45,0-.45,.22s-.22,.67-.45,1.12c-.22,.67,0,.89,.22,.89s.67-.45,.89-1.12,.22-1.12-.22-1.12Zm.67-3.8c0-3.35-.67-2.9-.89,.67-.22,1.56,0,2.46,.22,2.23,.45,0,.67-1.34,.67-2.9Zm0-4.02c-.22,0-.67,.22-.67,.45,0,.45,.22,.67,.45,.67,0,0,.45-.22,.45-.67,.22-.22,0-.45-.22-.45Zm.89-4.47c-.22-.22-.67,0-1.12,.45q-.45,.67,.45,.22c.45,0,.89-.45,.67-.67Zm-.22,3.13c0-.22-.22-.45-.45-.45,0,0-.45,.22-.45,.45-.22,.45-.22,.67,.22,.67,.22,0,.67-.22,.67-.67Zm.89-8.26c0-.67-.22-1.12-.45-1.12-.45,0-.89,1.56-.67,3.13,.45,1.12,1.12,0,1.12-2.01Zm0-2.23c0-.22,0-.67-.22-.67,0,0-.22,.45-.45,.67-.22,.22-.22,.45,.22,.45,.22,0,.45-.22,.45-.45Z"/><path class="cls-3" d="M566.74,94.91c-2.23,16.08-3.57,25.69-4.47,30.38-.67,4.69-2.01,14.29-2.9,21.22-.45,2.46-.89,4.47-.89,4.91-.22,.67-.45,1.56-.45,2.01-.45,3.35-1.34,8.49-1.56,9.83-.45,1.12-.67,2.01-.67,2.01,.22,.89,0,1.79-.45,1.56-.45-.22-.67-.67-.45-1.12,.22-.67,0-.89-1.12-.89-.89,0-1.34,.45-1.34,1.12-.22,.67,0,1.12,0,1.12,.22,0,.45,.45,.45,.89s-.22,.89-.45,.89-.45,.22,0,.45c0,.22,0,.89-.45,.89-.22,.22-.45,.67-.22,1.12,.22,.22,0,.45-.45,.45-.89,0-1.12,.45-.89,2.68,.22,1.34,.22,2.46,0,2.46s-.45,.89-.67,1.79c0,1.12-.22,2.01-.45,2.23-.45,0-.67-1.12-.67-3.57,.22-3.35,0-3.35-.89-2.46-.22,.67-.45,2.01-.45,2.68,0,.89-.45,1.79-.67,1.79s-.45-.67-.45-1.79c.22-.67,.22-1.56,.45-1.56,.22-.22,.45-.67,.45-1.34s-.22-.89-.45-.67c-.45,.22-.45-.22,0-.89q.67-1.12,1.12-.45c.67,.89,.89,.67,1.34-.45,0-.89,0-1.79-.22-2.01s-.22,0-.22,.45c0,.22-.45,.67-.89,.67-.67,0-.67-.22-.22-1.12,.67-1.56,.67-2.01-.22-1.56-.45,.22-.89,0-.89-.22s.45-.67,.89-.67c.67,0,.67-.22-.22-1.34-.67-1.12-.67-1.79-.45-2.23,.67-.45,.89-.45,.89,0s.22,.67,.45,.67c.89,0,.45-3.57-.22-4.47-.45-.45-.45-.67-.22-.67,.45,0,.89-.67,1.34-1.34,.45-1.12,.45-1.56-.22-1.56-.45,0-.89,.67-.89,1.34-.22,.89-.22,.45-.45-.45,0-1.12,.45-2.01,.89-2.01s.67-.22,.67-.45,.22-.89,.22-1.56c.22-.45-.22-.67-.45-.45-.45,.45-.45-.45,.22-7.37,.22-1.34,.22-1.56-.45-.89-.45,.45-.67,1.34-.67,2.23s0,1.34-.67,1.12c-.22,0-.22,.45,0,1.12,0,.67,0,1.12-.45,1.12s-.45,.67-.22,1.34c.22,.89,.22,1.34-.45,.89-.45-.45-.67-.22-.45,0,.22,.45,.22,1.12-.22,1.79-1.12,1.34-1.12,2.01,0,1.56,.45-.22,.67,0,.45,.45-.22,.67-.67,.89-.89,.67-.67-.45-.45,2.23,.45,2.9,.22,.67,.22,.89-.45,1.12-.45,.22-.67,1.12-.45,2.46,.22,1.34,0,2.01-.22,1.79-.45-.45-.89-.22-1.12,0,0,.45,0,.67,.45,.67,.22,0,.45,.45,.67,.89,0,.45-.45,.67-.67,.45-.45-.22-.45,.22-.22,1.56,.22,1.34,.22,1.56-.22,1.56-.45-.45-.89,.45-.67,1.34,.22,.89-.89,.45-1.12-.45q-.45-.67-.45,.45c0,.45,.45,1.34,.89,1.34,.22,.22,0,.45-.89,.45-1.56,0-2.9-1.34-1.79-1.56,.45-.22,.67-.67,.67-1.12s.22-.89,.45-.89c.45,0,.45-.67-.45-1.34q-.89-1.12-1.34,1.34c-.22,1.12-.45,3.13-.45,4.69,0,1.34-.22,3.13-.45,3.57-.45,.67-.45,1.79-.22,2.23,.22,.67,0,1.34-.22,1.34-.67,.22-1.34,3.8-1.56,8.49-.45,4.24-.67,4.91-1.56,4.02-.67-.45-1.12-.22-1.34,.67-.45,.89-.45,1.12,.22,.67,.45,0,1.12-.22,1.34,.22,.45,.22,.22,.45-.89,.67-1.12,.45-1.56,.89-1.79,1.79,.22,.89,.22,1.12,.22,.67,0-.67,.67-1.12,1.12-1.34,.67-.45,.89,.22,.89,2.46,0,1.79-.22,3.35-.22,3.8-.89,1.12-1.56,.67-1.79-1.34,0-2.23-1.12-2.68-1.34-.22,0,.89,0,2.23-.22,3.13-.22,1.12-.22,2.9-.45,3.8,0,1.12-.45,2.23-.67,2.9-.45,.22-.45,.89-.45,1.12,.22,.45,.22,.67,0,.89-.45,.22-.45,.89-.22,1.56,.22,.67,0,1.12-.45,1.12s-.67,.45-.22,1.12c.22,.89,0,.89-2.01,.67-1.56,0-2.68,.22-3.13,.67-.45,.67-2.01,.67-2.9-.22-.67-.67-.45-.89,.22-.89s.67-.22,.22-.89c-.67-.89-.22-1.34,.89-1.12,.67,.45,.67,.22,.22-.67-.45-.89-.45-1.56,0-2.01q.67-.45,0-.22c-.67,.45-.67-.22-.45-2.46,0-1.56,.45-3.13,.45-3.57,.67-1.79,.67-3.8,0-5.81-.67-2.46-.45-8.26,.67-6.92,.22,.45,.22,.89,0,1.34,0,.22,0,.45,.45,.45,.22,0,.45-.89,.45-1.79-.22-.89-.45-1.79-.89-1.79,0,0-.22-.89,0-1.79,0-.89,.67-5.14,1.12-9.6,.67-5.36,.89-7.37,1.56-7.37,.22,.22,.67,0,.67,0,0-.45-.45-.89-.67-.89s0-3.35,.67-10.5c.67-5.58,1.34-11.17,1.34-12.28,.89-5.58,3.35-24.57,3.8-28.59,.45-2.46,1.79-12.06,3.35-21.22,2.9-19.43,6.03-38.64,6.92-42.66,.67-2.9,.89-3.13,2.68-3.35,2.68-.67,6.48,0,9.38,1.34,1.79,1.12,2.68,1.12,2.9,.67,.22-.45,.89-.22,2.46,.89q2.01,1.34,2.68,.22,.67-1.34,6.7,.89c1.12,.22,2.23,2.9,2.23,6.25,.22,3.57-1.34,20.1-2.9,29.93Zm-47.35,115.25c.22-.89,.22-2.23,.45-2.68,0-.45,.22-1.12,.45-1.12s.22,.45,0,1.12c-.22,.89-.22,1.79-.22,2.23,.22,.67,0,1.34-.22,1.79-.45,0-.45-.45-.45-1.34Zm2.68-10.94c-.22,.45-.67,1.12-.45,1.56q.45,1.12,1.12-.89,.22-1.56-.67-.67Zm2.01-14.07c-.45,0-.89,.22-.89,.45,0,.45,.45,.67,.67,.67s.67-.22,.67-.67c.22-.45,0-.67-.45-.45Zm.67-3.57c0-.22-.22-.67-.45-.67-.45,.22-.45,.45-.22,.67,0,.45,.45,.45,.45,.45,.22,0,.22-.22,.22-.45Zm.45,38.42c0,.45-.45,.45-.67,.45-.22,.22-.22,0-.22-.45,.22-.22,.45-.67,.45-.67,.22,0,.45,.22,.45,.67Zm4.47-.67c-.45,0-.45-.22-.45-.45,0-1.12,.45-2.23,1.12-2.01,.89,.22,.45,2.46-.67,2.46Zm.67-41.99c-.22,0-.67,.22-.67,.45,0,.67,.22,.67,.45,.67,0,0,.45,0,.45-.67,.22-.22,0-.45-.22-.45Zm.67,34.84c.45,.45,.67,1.34,.45,2.23-.22,1.56-1.34,2.01-1.34,.45,0-.45,.22-.67,.45-.67,.45,0,.45-.67,0-1.34-.22-1.12,0-1.12,.45-.67Zm1.34-3.13c0,.45-.45,.45-.67,.45s-.67,0-.67-.45,.45-.67,.67-.67,.67,.22,.67,.67Zm.45-1.79c-.45,.45-.67,.45-.89,0-.45-.45-.22-.89,0-1.12,.89-.89,1.34,0,.89,1.12Zm1.34-26.13c0-.45-.45-.67-.89-.67s-.67,0,0,.89c.67,.67,1.34,.45,.89-.22Zm2.01-16.53c0-.22,0-.67-.22-.67s-.45,.45-.67,.67c0,.45,0,.67,.45,.67,.22,0,.45-.22,.45-.67Zm1.12-5.81c-.67,.22-1.12,.45-1.56,.22-.22-.22-.22,0,0,.22,.45,1.12,.67,1.12,1.56-.22q.67-.89,0-.22Zm.67,36.63c.22,0,0,.22-.67,.22s-.89-.22-.45-.22c.45-.45,.89-.22,1.12,0Zm-1.12-4.47c0-.22,.22-.22,.67-.22,.22,.22,.45,.45,.45,.67s-.22,.22-.45,.22c-.45,0-.67-.45-.67-.67Zm1.79,2.01c.22,.45-.22,.89-.67,.89-.89,.45-.89,.22-.89-.45,0-1.34,1.34-1.79,1.56-.45Zm.67-6.48c0,.67-.22,.89-.89,.89-.67,.22-1.12,0-1.12-.22,0-1.56,1.79-2.23,2.01-.67Zm2.01-9.6c-.22,3.13-.67,4.24-1.56,3.13-.22-.67-.45-.67-.45-.22s-.45,.89-.89,.89c-.22,0-.67,0-.67-.45,0-.22,.45-1.12,.67-1.56,.45-.45,.89-1.12,.89-1.34-.22-2.46,0-3.13,1.12-3.13,.89,0,.89,.45,.89,2.68Zm-1.12,5.14q.45,1.34-.67,2.01c-.89,.45-1.12,.45-1.34-.22-.22-.45,0-.89,.22-1.34,.22,0,.22-.45,.22-.89-.22,0,0-.45,.45-.45s.89,.45,1.12,.89Zm1.12-23.67c.22,0,.45-.22,.45-.45,0,0-.22-.22-.45-.22h-.89c-.22,0-.45,.67-.45,1.12,0,1.34,.22,1.34,.45,.45,.22-.67,.67-.89,.89-.89Zm1.56,2.23c0-.45-.22-.67-.89-.22-.45,.22-.67,.67-.45,.89,.45,.67,1.34,.45,1.34-.67Zm2.23,32.16c0,1.34-.22,2.01-.45,2.01s-.45-.45-.45-.89c0-.67,.22-1.56,.45-2.23q.45-.67,.45,1.12Zm0-4.47c.45,.22,.67,.45,.67,.67s-.22,.22-.67,.22c-.22,0-.45-.45-.45-.67s.22-.45,.45-.22Zm1.79,13.62c-.45,1.34-1.34,1.34-1.79,.22-.22-.22-.22-.45,.22-.22,.22,.22,.67,0,1.12-.22,.67-.67,.89-.45,.45,.22Zm-1.34-16.53c-.22-.67,0-2.23,.45-3.57l.45-2.23,.22,2.01c0,1.12-.22,2.68-.45,3.57-.22,1.12-.22,1.34-.67,.22Zm2.68,4.02c-.22,1.12-.45,2.23-.45,2.46,.22,.22,0,1.34-.45,2.46l-.89,2.01,.22-2.46c.22-1.34,.45-2.9,.67-3.35,.22-.22,.22-1.56,.22-2.9s.22-1.79,.22-1.34c.22,.45,.45,.89,.67,.89,.45,0,.22,1.12-.22,2.23Zm.22-6.03c.67,1.12,.67,2.68,0,2.01-.45-.45-.67-1.12-.67-1.79q0-1.12,.67-.22Zm.45-39.98c.45-.22,.89-2.23,.89-4.24,.22-1.79,.22-3.57,0-3.57-.45,0-.45,.67-.45,1.56s-.22,2.68-.45,4.24c-.22,1.79-.22,2.46,0,2.01Zm1.12,21.44c-1.12,.22-1.12,.67-.45,.67,.45,0,.89-.22,.89-.67,.22-.22,0-.45-.45,0Zm.45-3.57c-1.12,.22-1.12,.89-.22,.89,.22,0,.67-.22,.67-.67,.22-.22,0-.45-.45-.22Zm.22-26.8c0-.22-.45-.45-.67-.45-.45,0-.45,.22-.22,.45,.22,.45,.45,.67,.67,.67s.22-.22,.22-.67Zm.45-3.35c0-.67-.22-1.34-.45-1.34-.22-.22-.45,.22-.45,1.12,0,.67,.22,1.34,.45,1.34,.45-.22,.45-.67,.45-1.12Zm.22-6.48c.45,.89,1.12,.22,1.12-1.12-.22-.45-.45-1.12-.45-1.34,0,0-.22,.22-.45,.89-.45,.45-.45,1.34-.22,1.56Zm1.34,3.35c0-.22-.22-.45-.67-.67-.67-.22-.89-.22-.67,.22,.22,.45,1.34,.89,1.34,.45Zm0,55.61c-.22,.45-.45,.67-.67,.67,0,0-.22-.22-.22-.67,0-.22,.22-.45,.67-.45,.22,0,.22,.22,.22,.45Zm2.23-27.92c-.89,0-1.12,.22-1.34,1.79,.22,.45-.22,.89-.45,1.12-.45,.22-.45,.45,0,.45,.89,0,.67,2.68,0,3.57-.45,.45-.67,.89-.67,1.12,0,.67,1.79,.67,2.46-.22,.89-.89,.89-6.7-.22-6.7-.22,0,0-.45,.45-.67q.67-.45-.22-.45Zm-1.12,21c.45,.22,.45,.45,.22,.89-.45,1.34-.67,1.34-.67-.22,0-.45,.22-.89,.45-.67Zm1.34-5.36c0,1.56-.45,3.13-.89,3.57-.22,.45-.45,.22-.45-.45,.22-.45,0-1.34-.22-1.79-.22-.45-.22-1.34,.45-2.23,.45-.89,.67-1.56,.45-1.79-.22-.22,0-.45,.45-.45s.45,.67,.22,3.13Zm-.67-18.09c0,.45,.22,.67,.67,.67,.22,0,.67-.22,.89-.67,0-.22-.22-.67-.89-.45-.22,0-.67,.22-.67,.45Zm1.79,1.12c0-.45-.45-.22-.89,0-.45,0-.89,.45-.89,.45,0,.22,.45,.22,.89,.22s.89-.22,.89-.67Zm.67-4.91c0-.89-.45-1.56-.89-1.79q-.67,0,0,.45t.22,.45c-.45,0-.67,.67-.67,1.34s.22,.89,.67,.89,.67-.45,.67-1.34Zm-.89-3.57c-.67,1.12-.67,1.34,.45,1.12,.45-.22,.89-.89,.89-1.34,.45-1.34-.45-1.34-1.34,.22Zm3.8-21c0-.45-.22-.89-.45-.89s-.45,.45-.22,.89c.22,.45,.45,.89,.67,.89v-.89Z"/><path class="cls-3" d="M687.35,68.78c-3.13,9.16-7.82,25.46-8.93,31.94-.89,4.24-2.01,7.82-2.01,7.82-.45,0-.45,.45-.22,.67,.45,.67-.22,5.81-.89,7.15q-.67,1.12-1.12-.67c-.22-1.56-1.56-2.01-1.56-.67,.22,1.34-1.34,.89-1.56-.45q-.45-2.68-1.12-1.56c-1.12,2.01-1.56,1.12-1.34-5.14l.22-2.01-.67,2.23c-.45,2.68-1.34,3.57-2.23,3.13-.45,0-1.34-.22-1.56-.22-1.12,0-6.25-2.01-6.48-2.68-.22,0-.67-.22-.89-.22-.45,0-1.56-.67-2.68-1.34-1.12-.67-2.01-1.34-2.23-.89-.22,.22-.22-2.01-.45-6.25,0-.89,.45-2.68,.67-3.57,.22-.89,.67-3.57,.89-6.7,.45-2.68,.89-5.14,1.12-5.36,.89-1.12,.45-2.23-.67-2.01-.89,0-2.01-.22-2.46-.22-.67-.22-1.12-.22-1.12-.22,0,.45-1.12,.89-2.23,1.12-5.81,.89-12.28,3.13-19.21,6.92-5.14,2.68-7.59,4.24-13.18,9.16-6.03,5.14-16.08,17.42-15.86,19.21,0,.45,8.04,2.46,15.41,3.57,9.16,1.56,13.4,2.68,13.62,3.57,0,.22,.67,.45,1.12,.45,3.35-.45,15.19,8.04,20.55,14.52,1.79,2.23,4.69,5.36,6.25,7.15,6.92,7.37,10.05,12.73,10.72,18.31,1.56,12.51-10.5,31.72-25.91,41.99-8.93,6.03-15.63,8.26-26.13,9.6-4.02,.45-8.93,.67-10.94,.67-6.92-.67-9.16-1.56-12.73-5.36-1.79-1.79-5.36-5.58-8.49-8.26-2.68-2.9-5.81-6.03-6.7-7.15-2.01-2.23-2.68-4.91-1.34-6.92l.89-1.34,2.46,2.46c4.91,4.69,5.58,5.14,9.16,5.14,3.57,.22,14.52-.89,17.42-1.79,.45-.45,2.46-.89,3.8-1.56,1.34-.45,3.13-.89,3.8-1.34,2.46-.67,8.49-4.02,12.73-6.7,5.58-3.8,12.28-10.5,15.64-15.41,5.36-7.37,9.16-18.09,7.37-21-.89-1.56-8.93-4.24-14.96-5.36-9.6-1.34-14.52-2.46-21.22-4.47-10.05-3.13-12.28-4.47-17.2-10.05-1.79-2.01-5.81-6.48-8.93-9.83-6.92-7.37-8.26-9.16-8.04-12.51,.22-3.57,.67-5.14,3.35-9.38,4.47-7.59,15.86-18.54,24.57-24.57,15.19-10.05,33.95-14.29,50.03-11.17,2.23,.45,4.47,.67,4.69,.67,0-.22,.67-2.23,2.01-4.91,2.01-4.91,4.02-7.82,4.69-6.7,0,.45,.45,.67,.89,.67,1.12-.22,6.92,4.47,7.82,5.58,.45,.89,.89,1.12,1.79,.67,.89-.22,1.12-.22,1.34,1.12,0,.89,.22,1.56,.45,1.34,.45,0,.67,.67,.89,.89,0,1.12,.22,.89,.67,0,.89-1.34,1.12-1.34,4.91,1.56,2.46,1.56,2.68,2.46,1.34,6.7Zm-85.1,30.6c-.89,.67-1.12,1.12-.89,1.12s.67-.45,.89-1.12q.67-.89,0,0Zm67.01,1.12c-.22,.45-.45,1.56-.45,2.01,.22,.45-.22,.89-.67,.67-1.12-.22-1.12,.45,0,1.34,.89,.45,1.34,0,1.56-2.9,0-1.56,0-1.79-.45-1.12Zm1.56-5.58c0-.22-.45-.22-.45,0-.45,.45-.45,1.12-.45,1.79q.22,1.12,.45,0c.22-.67,.45-1.34,.45-1.79Zm1.12-5.14c0-.45-.22-.45-.67,.22,0,.67-.22,1.34-.22,1.79q0,.89,.45,0c.45-.45,.45-1.34,.45-2.01Zm14.96-26.13c0-.45-.22-.89-.22-.89-.22,0-.22,.45-.67,.89,0,.67,.22,.89,.45,.89,.45,0,.67-.22,.45-.89Z"/><path class="cls-3" d="M798.13,82.85c-4.47,.45-10.72,.89-13.4,1.12-1.56,.22-5.14,.45-8.04,.89-3.13,.22-6.48,.67-7.82,.89-1.12,0-3.35,.22-4.91,.45-1.56,.22-3.8,.67-5.14,.67-1.12,.22-3.8,.45-5.58,.89-2.01,0-5.58,.45-8.49,.89-2.9,.22-6.92,.89-9.16,1.12l-4.02,.67-2.23,16.3c-1.34,8.93-2.9,17.87-3.13,19.66-.45,2.23-.67,3.8-.22,4.02,.22,0,2.23,.22,4.24,0,2.23-.22,6.03-.22,8.71-.22,2.68-.22,5.14-.45,6.03-.45,.89-.22,4.24-.45,7.37-.45,7.37,0,9.16-.22,10.27-.67,.45-.22,.89,0,1.34,.22,0,.45,.45,.67,.89,.67s.22,0,0-.45c-.45-.45-.67-.67-.45-.67,1.34,0,3.13,2.01,2.9,3.35,0,.67,.45,1.56,.89,1.79,.67,0,.67,1.12,.67,3.13-.22,2.23,0,3.13,.89,4.02q.89,1.12,0,1.34c-.67,0-1.12,.45-1.12,.67,0,.45-.45,.45-.89,.22-.45-.22-.45,0-.45,.67,.22,.67,0,.67-.45,.45-.45-.22-1.12-.89-1.12-1.34-.45-.67-.67-.45-2.46,.22-1.12,.67-1.79,.89-1.79,.45,0-.22-.67-.22-1.12,.45-1.12,.67-1.34,.67-1.34,.22s-.45-.45-1.12,.45c-.45,.67-1.12,.89-1.12,.67,0-.89-1.56-1.34-2.68-.89-1.12,.45-1.56,1.56-.67,1.56,.22,.22,.67,.67,1.12,1.34l.45,1.34-.22-1.34c-.22-.67,0-1.12,.22-1.12,.45,0,.67,.45,.67,.89q0,.89,.89,.22c.89-1.12,4.47-1.12,3.8-.45-.22,.45,.45,.67,1.56,.45,.89-.22,3.57-.22,5.58-.45,3.57,0,3.8,0,3.35,1.12-.22,.89,0,1.12,.89,.89,.67,.22,1.12,.22,1.12,.45-.22,.45-.45,.67-.89,.67-.22,0-.67,.22-.67,.22-.22,0-1.12,.22-1.79,.22-2.23,.45-3.13,1.56-2.23,2.68q.45,.67-.22,.67c-.67,0-13.4,1.12-16.53,1.56-1.12,0-4.91,.45-8.71,.67-3.57,.45-7.15,.67-7.82,.89-.45,0-3.8,.45-7.15,.45l-6.03,.67-.22,1.56c-.89,4.02-1.12,5.36-1.56,8.26-.45,3.57-1.34,4.69-2.01,3.35-.22-.45-.45-.89-.22-1.34,0,0,.22-1.56,.45-3.13,.45-1.79,.89-4.24,.89-5.58,.45-1.56,.45-2.46,0-2.46s-.89,1.34-1.12,2.68c-.22,1.56-.45,3.57-.67,4.69-.22,.89-.67,2.01-.89,2.9-.45,.45-.45,1.12-.45,1.56q.22,.45-.22,.45c-.22,0-.45,1.12-.45,2.01,0,1.12-.22,2.01-.45,2.01s-.45,.22-.45,.89c0,.45,.22,.67,.67,.45,.22-.22,.22,.22-.22,.89,0,.67-.22,1.79-.22,2.01,.45,.89-.89,2.46-1.56,2.46-.22,0-.22-2.01-.22-4.47,.22-2.23,0-4.02-.45-4.24,0,0-.67-.45-1.12-.89-.22-.67-.45-1.34-.22-1.34,.45,0,.89-.22,.89-1.12,.22-.45,.22-1.12,0-1.12s-.45-1.12-.45-2.68c0-2.46,.45-3.13,.89-3.57,.67-.45,.89-.67,.45-.89-.45,0-.67-.45-.45-.67,0-.45-.45-.89-1.12-1.12-.89,0-1.34,0-1.12,.89,.45,.45,.22,.67,0,.67-.45,0-.45,.89-.45,1.56,0,.89,0,1.56-.45,1.79-.45,.22-.89,1.12-.89,1.79,0,.45-.22,1.12-.67,1.12,0,0-.22,.89-.22,1.79,.22,1.12,0,2.01-.22,2.01s-.45,.67-.22,1.34c0,.89-.22,1.56-.45,1.56-.45-.22-.45-.45-.45-.67,0-.45-.22-.67-.45-.22-.22,0,0,.67,.45,1.12,.67,.89,.67,1.56,.45,2.01-.67,.89-2.01,.22-1.56-.89,.22-.45,0-.67-.45-.45-.67,0-.89,0-.89-.67s-.22-1.12-.45-1.12-.45,.67-.45,1.12c0,.89,.22,1.34,.45,1.34,.45,0,.67,0,0,.45-.22,.22-.67,1.56-1.12,3.35,0,1.79-.45,3.57-.67,4.24-.22,.67-.22,1.34-.22,1.79-.22,.45-.67,1.12-1.12,1.56q-1.12,.89-1.34-.89l-.22-2.01-.22,2.01c-.22,1.12-.22,2.23,0,2.23,.89-.22,1.56,0,1.56,.45s-.67,.67-1.34,.67q-1.12,0-.22,.45c.67,.45,.89,.67,.22,.67-.45,0-.45,.22,.22,.67,.89,.67,.89,1.34,.45,2.23-.22,.67-.45,1.79-.45,2.01,.22,.67,0,.67-.67,.45-1.12-.45-1.79,.45-2.01,2.46,0,1.12,.22,1.56,.89,1.56,.89,.22,1.34,.45,1.34,1.12,.22,.45,.22,.67,0,.45-.22-.22-.67,0-.89,.67-.22,.45,0,.67,0,.45,.45-.22,.67,.45,.45,1.12,0,.89-.22,1.34-.67,1.34s-.67-.22-.67-.67v-2.23c0-1.34-.45-1.56-2.68-1.12-.22,0,0,.22,.45,.89,.67,.89,.67,1.79,.45,3.35,0,1.12-.22,3.35-.45,4.47-.22,1.56-.45,2.46-.45,2.46-.22,0-.45,.22-.22,.67,.22,.22,0,.67-.22,.67-.45,.45-.45,.67,.22,1.34,1.34,1.12,1.56,1.12,1.34-.67q-.22-.89,.89,0c.89,1.56,0,2.68-1.56,1.56-1.56-.89-2.68-1.12-1.56,0,1.79,1.56,.89,5.58-1.12,4.69-.45-.22-1.12,0-1.34,.22-.22,.22-.89,.22-1.12-.45-.45-.45-1.34-.89-2.01-.89-1.12,.22-1.12-.22-1.12-2.01,0-3.8,0-4.24-.67-3.13-.45,.67-.67,.67-.67-.45,.22-.89,.45-1.12,.89-.89,.89,.45,.89-.22,1.12-2.46,0-1.79-.22-2.46-.45-1.79q-.67,.67-.67-.45c0-.67,.45-1.12,.67-1.12,.22,.45,.45,.45,.45,.45,.89-5.14,.89-6.92,.22-6.92-.22,0-.45-.67-.45-1.79,0-1.56,.22-2.01,.89-1.79,.67,.22,.89,0,.45-.45,0-.45-.22-.89-.67-.67-.67,.45,.22-2.68,.89-3.13,.89-.45,1.34-3.8,.67-3.57-.89,.45-.45-6.25,.67-12.51,.22-.89,.45-3.35,.67-5.36,.22-1.79,.67-4.24,.89-5.36,.22-.89,.45-3.57,.67-5.81,.89-5.58,.89-6.48,1.56-9.83,.45-3.35,.22-4.91-2.68-10.72-1.79-3.57-.89-4.69,4.24-6.25,1.12-.22,1.34-1.79,5.58-27.92,1.56-10.5,3.13-20.1,3.35-21.67,.45-2.46,.22-3.35-1.12-6.92-2.46-5.81-2.68-6.03-3.13-8.04-.22-1.34-.22-2.01,0-2.01q.45,0,.45-.45c-.45-.89,2.46-2.01,5.14-2.23,1.34-.22,2.46-.67,2.46-.67,.22-1.56,2.46-11.17,2.9-11.61,1.12-1.12,10.27,.67,11.39,2.46,0,.45,.45,.45,1.12,0s1.12-.45,1.56,.22c.22,.67,.89,1.12,1.34,1.12s.45,.22,.45,.45c0,.45,.22,.45,.67,.67,.22,0,.45-.45,.45-.89,.22-1.12,.45-1.12,2.46-.67,1.12,.22,2.46,.67,2.68,.89,.22,.45,.67,.45,1.34,.45,.89,.22,1.12,.67,1.56,2.23,0,2.23-1.79,2.23,15.86,.67,6.7-.67,14.07-1.34,16.08-1.56,2.01,0,3.8-.22,3.8-.22,.22-.22,.89,0,1.34,.45,.67,.45,1.34,.45,1.34,0,.45-.67,2.23-.89,15.64-1.56,9.83-.67,10.72-.67,11.17,.22,.22,.67,.89,.89,1.34,.89,.89-.45,1.12,1.12,.22,1.79-.45,.22-.22,1.12,.67,2.01,1.12,1.34,1.34,1.79,.67,3.13-.45,.67-.45,1.12,0,1.12,.45,.22,.45,.45,0,1.34-.89,1.34-.89,2.23,.22,2.23,.45,0,.67,.45,.45,.67-.45,1.12-1.79,1.12-2.46,0q-.67-.89-.67,0c0,.67-.22,.89-.67,.67-.67-.45-1.12,0-1.34,.45q-.45,.67-1.12,.22c-.67-.45-.89-.45-.89,0,0,.22-.22,.45-.45,.45-.89,0-2.68-2.23-2.68-2.9,0-.45-.45-.45-.89-.22-.67,0-1.34,.22-1.56,.22-.45,0,.22,.45,1.34,1.12,2.9,1.12,2.46,1.79-1.12,2.01-1.34,.22-2.9,.45-3.35,.67-.22,.22-.89,.22-1.34,0-.45-.22-1.12-.45-1.79-.45-.89,.45-.89,.67-.45,1.34,.45,.45,.45,.67-.22,.67s-1.34,0-1.79,.22c-.67,.22-.89,.22-.89,0,.45-2.23-.45-2.68-2.23-1.12-.89,1.12-1.12,1.12-1.34,.22-.22-.45-.67-.67-.89-.45-.22,.22-.45,.67-.22,1.12,0,.45-.45,.89-1.56,1.12-1.56,.45-1.79,.67-.67,.67,.89,0,1.12,.22,.89,.89-.22,.45-.22,.67,.89,.67,.67-.45,1.12-.67,1.12-.89s-.22-.45-.67-.22q-.45,.22,0-.22c0-.45,.89-.67,1.79-.45,.67,0,1.56,0,1.79-.22,.89-.22,5.14-.22,5.14,.22,0,.22,.89,.45,2.46,.67,1.34,.22,2.46,0,2.46-.22s1.56-.45,3.57-.22c1.79,.22,4.02,0,4.69-.22,1.56-.45,2.23,.45,.89,1.12-.89,.67-.67,.67,.45,.67,1.34,0,1.56,0,1.34-.67-.22-.45,.22-.89,.67-1.12,.45-.22,1.12,.22,1.34,1.12,.45,1.34,.67,1.56,1.12,.89,.67-.67,.45-.67,.45,.22-.22,1.12-.89,1.34-5.36,1.34-4.24,.45-6.03,.89-5.81,1.56,0,.45,1.56,.67,4.02,.67,4.02,0,4.47,.89,.89,1.34Zm-113.02,120.61c0-.67,0-1.12,.22-.67v1.34c-.45,.45-.45,.22-.22-.67Zm1.79-4.69c-.45-1.12-.67-1.12-.67,.45,0,.45,.22,.89,.45,.67,.45-.22,.45-.67,.22-1.12Zm4.02-5.36c0-.22-.45-.45-.89-.67-.45-.22-.67,0-.67,.22,.45,.45,1.56,.89,1.56,.45Zm4.69,17.65c.22,1.56-.22,1.56-.67,.45-.45-1.34-.45-1.56,.22-1.56,.22,0,.45,.67,.45,1.12Zm.89-17.87c-.45,.22-.67,.89-.22,1.12,.22,.67,.45,.67,.89,0,.22-.45,.22-.89,0-1.12,0-.45-.45-.45-.67,0Zm2.9-17.64c0-.22-.22-.67-.45-.45-.45,.22-.45,.67-.45,.89,.45,.89,.89,.67,.89-.45Zm4.02,12.06q-.22,.89-.45,.45c-.22-.67-.45-.67-1.12-.22q-.89,.89-.22-.22c.45-.45,.89-.89,1.34-.89,.22,0,.45,.45,.45,.89Zm1.12-6.25c-.45,.89-2.46,3.13-2.9,3.13-.22,0,0-.45,.22-1.12,.22-.67,.67-1.12,1.12-1.12q.89-.22,0-1.12c-1.12-1.34-.67-3.35,1.12-3.35,1.56,0,1.56,.67,.45,3.57Zm-.67-14.74c-.67,0-.67,.22-.67,.89,.22,.89,0,1.34-.22,1.56-.67,.22-.67,3.57,0,3.57,.45,0,.45-.45,.45-1.34-.22-.67,0-1.56,.22-1.79,1.12-.67,1.12-2.9,.22-2.9Zm.45,12.28c0-.22,0-.67-.22-.67s-.45,.45-.67,.67q0,.45,.45,.67c.22,0,.45-.22,.45-.67Zm4.91,6.7c.22,.22,.45,.67,.45,.89s-.22,.45-.45,.45c-.45,0-.67-.45-.67-.89s.22-.67,.67-.45Zm-.22,15.86v1.34c-.45,.45-.45,.22-.45-.67,.22-.67,.22-1.12,.45-.67Zm0-24.34c0-.67,.22-.89,.45-.22,0,.22,0,.67-.22,.89s-.22-.22-.22-.67Zm2.23,14.07c0,.45-.22,1.12-.67,1.12-.22,.22-.45-.22-.45-.67,0-.67,.22-1.12,.67-1.12,.22,0,.45,.45,.45,.67Zm.22-2.23c.22,.89-.22,1.34-.89,.67-.45-.67-.45-1.56,0-1.56s.89,.45,.89,.89Zm.67-6.48c.22,2.01,0,2.68-.67,2.68-.22,.22-.67,0-.45-.45,.22-1.12,.89-3.13,1.12-2.23Zm.45-58.97c0-.22,0-.45-.22-.45,0,0-.45,.22-.45,.45-.22,.45-.22,.67,.22,.67,.22,0,.45-.22,.45-.67Zm.67,41.77q-.45-.89-.45,0c0,.67-.45,1.12-.67,1.12s-.45,.22-.22,.67c.22,1.12,1.12,1.12,1.56,.22,.22-.45,0-1.34-.22-2.01Zm-.22,4.69c.22-.45-.22-.67-.45-.67-.22,.45-.67,.89-.67,1.12s.22,.45,.67,.45c.22,0,.45-.22,.45-.89Zm.89-6.92c0-.67-.22-1.12-.22-1.12-.45,0-.67,.45-.67,1.12s0,.89,.45,1.12c.22,0,.45-.45,.45-1.12Zm3.35-38.19c-.22-1.12-.89-1.34-1.79-.22-.45,.45-.45,.89,0,1.12,.67,.45,.67,2.9-.22,3.13-.45,.22-.45,.67-.22,1.34,.45,.89,.67,.67,1.12-1.56,.22-1.34,.67-2.68,.89-2.68s.22-.22,.22-1.12Zm-1.12,58.3c-.67,4.24-1.12,2.68-.67-2.46,.45-2.68,.89-4.91,1.34-5.36,.67-.67,.67,.67-.67,7.82Zm1.79-66.34c0-1.34-.22-1.12-.89,.89-.45,1.56-.67,3.35-.45,4.24q.22,1.34,.67-.89c.45-1.56,.67-3.35,.67-4.24Zm-.45,57.18c-.22,.22-.67,0-.67-.45-.45-.89,0-1.34,.89-1.34,.45,0,.45,1.34-.22,1.79Zm3.35-75.49c-.22-.45-.22,0-.22,.67,0,.89,0,1.12,.22,.67v-1.34Zm4.47,21c0-.22-.22-.45-.22-.45-.22,0-.45,.22-.67,.45-.22,.45-.22,.67,.22,.67,.22,0,.67-.22,.67-.67Zm11.84,28.14c.22,0,.45-.22,.45-.67,0-.22,0-.45-.22-.45s-.45,.22-.67,.45c0,.45,0,.67,.45,.67Zm14.29-69.46c-.22-.22-.67-.22-1.12,0-.45,0-.45,.22,.45,.22,.45,0,.89,0,.67-.22Zm-.67,68.35c.45,0,.89,0,.89-.22,0-.67-1.12-.89-1.34-.45-.22,.45,0,.45,.45,.67Zm.89,6.7c.45,.45,.67,.45,1.34,0,.45-.45,.45-.67,0-1.12-.67-.45-1.79,.22-1.34,1.12Zm4.02-8.71c.22,.45,.67,.67,.67,.89h-.67c-.22,0-.67-.22-.45-.45,0-.45,.22-.45,.45-.45Zm.22,7.82c0,.67,1.56,.45,2.23-.45q.45-.45,0,0c-.22,.22-.89,.22-1.34,.22-.45-.45-.89-.22-.89,.22Zm7.37-76.83c-.67,.67-.89,.45-1.12,0-.22-.67-.45-.45-.45,0,0,.89-.45,1.12-1.34,1.12-.67,0-1.56,.22-2.01,.67-.67,.22-.67,.45,0,.22,.67-.22,1.12,0,1.34,.22,.22,.45,.67,.45,.89,0,.22-.22,.67-.67,1.12-.45,.22,.22,1.12-.45,1.56-1.12q.89-1.34,0-.67Zm-1.34,76.83c.67,0,1.34,0,1.34-.45,0-.67-1.12-1.12-1.79-.45-.89,.67-.67,.67,.45,.89Zm2.68-8.04c0,.22-.22,.45-.89,.45q-.67-.22-.22-.45h1.12Zm-.22,7.82c.89,.45,2.23-.22,2.46-1.34,0-.22-.45,0-.89,.22-.45,.45-.89,.45-.89,.45,0-.45-.22-.45-.67-.22q-.45,.45,0,.89Zm1.56-67.68c0-.22-.22-.45-.67-.67-.22,0-.45,0-.45,.22s.22,.67,.45,.67c.45,0,.67,0,.67-.22Zm-.22-8.49c0,.45,0,.89,.22,.67,.22-.22,.22-.67,.22-1.12-.22-.45-.45-.22-.45,.45Zm1.34,64.55c0,.22,.22,.45,.67,.45,.22,0,.45-.22,.45-.89,0-.45-.22-.67-.45-.45-.45,.22-.45,.45-.67,.89Zm6.92,12.06c0,.22-.67,.45-1.12,.22-.67-.22-1.34,0-1.34,.22-.67,.67-3.35,.45-3.13-.45,0-.45,.45-.89,.89-1.12,.45-.22,.67,0,.45,.45-.45,.45-.22,.45,.22,0,.45-.22,1.34-.45,1.79-.22,.45,0,1.12,.22,1.56,.22s.67,.22,.67,.67Zm-4.47-75.94h1.34c.22-.22,.22-.45,.22-.67-.45-.67-2.23-.45-2.46,.22-.22,.45,.22,.45,.89,.45Zm1.56,6.03c-.22,0-.67,.22-.67,.45,0,.45,.22,.67,.45,.67,0,0,.22-.22,.45-.67,.22-.22,0-.45-.22-.45Zm7.37-.89c-1.12-.67-1.79-.22-1.79,.67,0,.45,.22,.45,.45-.22,.45-.45,.67-.45,.67,0s.22,.67,.45,.45c.45-.22,.45-.67,.22-.89Zm3.35,.22c0-.45-.45-.67-.67-.67s-.45,.22-.45,.45c0,.45,.22,.67,.45,.67s.67-.22,.67-.45Zm6.03-.67c.22-.67-.22-.89-1.12-.45-.89,.22-1.56,.22-2.01,.22-.45-.22-.67,0-.67,.45,0,.67-.22,.67-.67-.22-.22-.45-.45-.45-.45,0,0,.67,.67,1.34,1.56,.89,.45,0,1.34-.22,2.01-.22,.89,.22,1.34-.22,1.34-.67Zm4.69-.67c0-.22-.67-.45-1.12-.45-.89,0-1.12,.22-1.12,.45s-.22,.45-.67,.22c-.22-.22-.67-.22-.89,.22-.22,.45-.22,.67,.22,.45,.22-.22,.67,0,.89,.45q.45,.89,1.34,0c.67-.67,1.34-1.12,1.34-1.34Zm2.46-23.01c.45,0,1.34,0,1.56-.45,.45-.67-.89-.89-2.01-.22-.67,.45-.67,.67,.45,.67Zm-.22,20.33c.45,0,.67-.22,.89-.67,.22-.22,.22-.45-.22-.45-.22,0-.67,.22-.89,.45,0,.45,0,.67,.22,.67Zm0-8.93c-.22,.67,0,.89,.89,.89,.67-.45,1.12-.67,1.12-1.12-.45-.89-1.79-.67-2.01,.22Zm3.35-11.84c.67,0,.89-.22,.89-.22-.45-.22-.89-.45-1.34,0-.45,0-.22,.22,.45,.22Zm.67,11.39c.45,.45,.89,.45,1.12,0,.45-.45,.67-.67,.67-.89-.45-.45-2.01,.45-1.79,.89Zm4.69,13.62c-.45,0-.89-.22-.67-.45,.22-.45,.89-.67,1.56-.67,1.34,.22,.67,1.12-.89,1.12Zm.67-6.7c.45,0,.89,.22,.89,.45,0,.67-.22,.67-1.12,0-.67-.45-.67-.67,.22-.45Z"/><path class="cls-3" d="M835.87,94.91c-2.23,16.08-3.57,25.69-4.47,30.38-.67,4.69-2.01,14.29-2.9,21.22-.45,2.46-.89,4.47-.89,4.91-.22,.67-.45,1.56-.45,2.01-.45,3.35-1.34,8.49-1.56,9.83-.45,1.12-.67,2.01-.67,2.01,.22,.89,0,1.79-.45,1.56-.45-.22-.67-.67-.45-1.12,.22-.67,0-.89-1.12-.89-.89,0-1.34,.45-1.34,1.12-.22,.67,0,1.12,0,1.12,.22,0,.45,.45,.45,.89s-.22,.89-.45,.89-.45,.22,0,.45c0,.22,0,.89-.45,.89-.22,.22-.45,.67-.22,1.12,.22,.22,0,.45-.45,.45-.89,0-1.12,.45-.89,2.68,.22,1.34,.22,2.46,0,2.46s-.45,.89-.67,1.79c0,1.12-.22,2.01-.45,2.23-.45,0-.67-1.12-.67-3.57,.22-3.35,0-3.35-.89-2.46-.22,.67-.45,2.01-.45,2.68,0,.89-.45,1.79-.67,1.79s-.45-.67-.45-1.79c.22-.67,.22-1.56,.45-1.56,.22-.22,.45-.67,.45-1.34s-.22-.89-.45-.67c-.45,.22-.45-.22,0-.89q.67-1.12,1.12-.45c.67,.89,.89,.67,1.34-.45,0-.89,0-1.79-.22-2.01-.22-.22-.22,0-.22,.45,0,.22-.45,.67-.89,.67-.67,0-.67-.22-.22-1.12,.67-1.56,.67-2.01-.22-1.56-.45,.22-.89,0-.89-.22s.45-.67,.89-.67c.67,0,.67-.22-.22-1.34-.67-1.12-.67-1.79-.45-2.23,.67-.45,.89-.45,.89,0s.22,.67,.45,.67c.89,0,.45-3.57-.22-4.47-.45-.45-.45-.67-.22-.67,.45,0,.89-.67,1.34-1.34,.45-1.12,.45-1.56-.22-1.56-.45,0-.89,.67-.89,1.34-.22,.89-.22,.45-.45-.45,0-1.12,.45-2.01,.89-2.01s.67-.22,.67-.45,.22-.89,.22-1.56c.22-.45-.22-.67-.45-.45-.45,.45-.45-.45,.22-7.37,.22-1.34,.22-1.56-.45-.89-.45,.45-.67,1.34-.67,2.23s0,1.34-.67,1.12c-.22,0-.22,.45,0,1.12,0,.67,0,1.12-.45,1.12s-.45,.67-.22,1.34c.22,.89,.22,1.34-.45,.89-.45-.45-.67-.22-.45,0,.22,.45,.22,1.12-.22,1.79-1.12,1.34-1.12,2.01,0,1.56,.45-.22,.67,0,.45,.45-.22,.67-.67,.89-.89,.67-.67-.45-.45,2.23,.45,2.9,.22,.67,.22,.89-.45,1.12-.45,.22-.67,1.12-.45,2.46,.22,1.34,0,2.01-.22,1.79-.45-.45-.89-.22-1.12,0,0,.45,0,.67,.45,.67,.22,0,.45,.45,.67,.89,0,.45-.45,.67-.67,.45-.45-.22-.45,.22-.22,1.56,.22,1.34,.22,1.56-.22,1.56-.45-.45-.89,.45-.67,1.34,.22,.89-.89,.45-1.12-.45q-.45-.67-.45,.45c0,.45,.45,1.34,.89,1.34,.22,.22,0,.45-.89,.45-1.56,0-2.9-1.34-1.79-1.56,.45-.22,.67-.67,.67-1.12s.22-.89,.45-.89c.45,0,.45-.67-.45-1.34q-.89-1.12-1.34,1.34c-.22,1.12-.45,3.13-.45,4.69,0,1.34-.22,3.13-.45,3.57-.45,.67-.45,1.79-.22,2.23,.22,.67,0,1.34-.22,1.34-.67,.22-1.34,3.8-1.56,8.49-.45,4.24-.67,4.91-1.56,4.02-.67-.45-1.12-.22-1.34,.67-.45,.89-.45,1.12,.22,.67,.45,0,1.12-.22,1.34,.22,.45,.22,.22,.45-.89,.67-1.12,.45-1.56,.89-1.79,1.79,.22,.89,.22,1.12,.22,.67,0-.67,.67-1.12,1.12-1.34,.67-.45,.89,.22,.89,2.46,0,1.79-.22,3.35-.22,3.8-.89,1.12-1.56,.67-1.79-1.34,0-2.23-1.12-2.68-1.34-.22,0,.89,0,2.23-.22,3.13-.22,1.12-.22,2.9-.45,3.8,0,1.12-.45,2.23-.67,2.9-.45,.22-.45,.89-.45,1.12,.22,.45,.22,.67,0,.89-.45,.22-.45,.89-.22,1.56s0,1.12-.45,1.12-.67,.45-.22,1.12c.22,.89,0,.89-2.01,.67-1.56,0-2.68,.22-3.13,.67-.45,.67-2.01,.67-2.9-.22-.67-.67-.45-.89,.22-.89s.67-.22,.22-.89c-.67-.89-.22-1.34,.89-1.12,.67,.45,.67,.22,.22-.67-.45-.89-.45-1.56,0-2.01q.67-.45,0-.22c-.67,.45-.67-.22-.45-2.46,0-1.56,.45-3.13,.45-3.57,.67-1.79,.67-3.8,0-5.81-.67-2.46-.45-8.26,.67-6.92,.22,.45,.22,.89,0,1.34,0,.22,0,.45,.45,.45,.22,0,.45-.89,.45-1.79-.22-.89-.45-1.79-.89-1.79,0,0-.22-.89,0-1.79,0-.89,.67-5.14,1.12-9.6,.67-5.36,.89-7.37,1.56-7.37,.22,.22,.67,0,.67,0,0-.45-.45-.89-.67-.89s0-3.35,.67-10.5c.67-5.58,1.34-11.17,1.34-12.28,.89-5.58,3.35-24.57,3.8-28.59,.45-2.46,1.79-12.06,3.35-21.22,2.9-19.43,6.03-38.64,6.92-42.66,.67-2.9,.89-3.13,2.68-3.35,2.68-.67,6.48,0,9.38,1.34,1.79,1.12,2.68,1.12,2.9,.67,.22-.45,.89-.22,2.46,.89q2.01,1.34,2.68,.22,.67-1.34,6.7,.89c1.12,.22,2.23,2.9,2.23,6.25,.22,3.57-1.34,20.1-2.9,29.93Zm-47.35,115.25c.22-.89,.22-2.23,.45-2.68,0-.45,.22-1.12,.45-1.12s.22,.45,0,1.12c-.22,.89-.22,1.79-.22,2.23,.22,.67,0,1.34-.22,1.79-.45,0-.45-.45-.45-1.34Zm2.68-10.94c-.22,.45-.67,1.12-.45,1.56q.45,1.12,1.12-.89,.22-1.56-.67-.67Zm2.01-14.07c-.45,0-.89,.22-.89,.45,0,.45,.45,.67,.67,.67s.67-.22,.67-.67c.22-.45,0-.67-.45-.45Zm.67-3.57c0-.22-.22-.67-.45-.67-.45,.22-.45,.45-.22,.67,0,.45,.45,.45,.45,.45,.22,0,.22-.22,.22-.45Zm.45,38.42c0,.45-.45,.45-.67,.45-.22,.22-.22,0-.22-.45,.22-.22,.45-.67,.45-.67,.22,0,.45,.22,.45,.67Zm4.47-.67c-.45,0-.45-.22-.45-.45,0-1.12,.45-2.23,1.12-2.01,.89,.22,.45,2.46-.67,2.46Zm.67-41.99c-.22,0-.67,.22-.67,.45,0,.67,.22,.67,.45,.67,0,0,.45,0,.45-.67,.22-.22,0-.45-.22-.45Zm.67,34.84c.45,.45,.67,1.34,.45,2.23-.22,1.56-1.34,2.01-1.34,.45,0-.45,.22-.67,.45-.67,.45,0,.45-.67,0-1.34-.22-1.12,0-1.12,.45-.67Zm1.34-3.13c0,.45-.45,.45-.67,.45s-.67,0-.67-.45,.45-.67,.67-.67,.67,.22,.67,.67Zm.45-1.79c-.45,.45-.67,.45-.89,0-.45-.45-.22-.89,0-1.12,.89-.89,1.34,0,.89,1.12Zm1.34-26.13c0-.45-.45-.67-.89-.67s-.67,0,0,.89c.67,.67,1.34,.45,.89-.22Zm2.01-16.53c0-.22,0-.67-.22-.67s-.45,.45-.67,.67c0,.45,0,.67,.45,.67,.22,0,.45-.22,.45-.67Zm1.12-5.81c-.67,.22-1.12,.45-1.56,.22-.22-.22-.22,0,0,.22,.45,1.12,.67,1.12,1.56-.22q.67-.89,0-.22Zm.67,36.63c.22,0,0,.22-.67,.22s-.89-.22-.45-.22c.45-.45,.89-.22,1.12,0Zm-1.12-4.47c0-.22,.22-.22,.67-.22,.22,.22,.45,.45,.45,.67s-.22,.22-.45,.22c-.45,0-.67-.45-.67-.67Zm1.79,2.01c.22,.45-.22,.89-.67,.89-.89,.45-.89,.22-.89-.45,0-1.34,1.34-1.79,1.56-.45Zm.67-6.48c0,.67-.22,.89-.89,.89-.67,.22-1.12,0-1.12-.22,0-1.56,1.79-2.23,2.01-.67Zm2.01-9.6c-.22,3.13-.67,4.24-1.56,3.13-.22-.67-.45-.67-.45-.22s-.45,.89-.89,.89c-.22,0-.67,0-.67-.45,0-.22,.45-1.12,.67-1.56,.45-.45,.89-1.12,.89-1.34-.22-2.46,0-3.13,1.12-3.13,.89,0,.89,.45,.89,2.68Zm-1.12,5.14q.45,1.34-.67,2.01c-.89,.45-1.12,.45-1.34-.22-.22-.45,0-.89,.22-1.34,.22,0,.22-.45,.22-.89-.22,0,0-.45,.45-.45s.89,.45,1.12,.89Zm1.12-23.67c.22,0,.45-.22,.45-.45,0,0-.22-.22-.45-.22h-.89c-.22,0-.45,.67-.45,1.12,0,1.34,.22,1.34,.45,.45,.22-.67,.67-.89,.89-.89Zm1.56,2.23c0-.45-.22-.67-.89-.22-.45,.22-.67,.67-.45,.89,.45,.67,1.34,.45,1.34-.67Zm2.23,32.16c0,1.34-.22,2.01-.45,2.01s-.45-.45-.45-.89c0-.67,.22-1.56,.45-2.23q.45-.67,.45,1.12Zm0-4.47c.45,.22,.67,.45,.67,.67s-.22,.22-.67,.22c-.22,0-.45-.45-.45-.67s.22-.45,.45-.22Zm1.79,13.62c-.45,1.34-1.34,1.34-1.79,.22-.22-.22-.22-.45,.22-.22,.22,.22,.67,0,1.12-.22,.67-.67,.89-.45,.45,.22Zm-1.34-16.53c-.22-.67,0-2.23,.45-3.57l.45-2.23,.22,2.01c0,1.12-.22,2.68-.45,3.57-.22,1.12-.22,1.34-.67,.22Zm2.68,4.02c-.22,1.12-.45,2.23-.45,2.46,.22,.22,0,1.34-.45,2.46l-.89,2.01,.22-2.46c.22-1.34,.45-2.9,.67-3.35,.22-.22,.22-1.56,.22-2.9s.22-1.79,.22-1.34c.22,.45,.45,.89,.67,.89,.45,0,.22,1.12-.22,2.23Zm.22-6.03c.67,1.12,.67,2.68,0,2.01-.45-.45-.67-1.12-.67-1.79q0-1.12,.67-.22Zm.45-39.98c.45-.22,.89-2.23,.89-4.24,.22-1.79,.22-3.57,0-3.57-.45,0-.45,.67-.45,1.56s-.22,2.68-.45,4.24c-.22,1.79-.22,2.46,0,2.01Zm1.12,21.44c-1.12,.22-1.12,.67-.45,.67,.45,0,.89-.22,.89-.67,.22-.22,0-.45-.45,0Zm.45-3.57c-1.12,.22-1.12,.89-.22,.89,.22,0,.67-.22,.67-.67,.22-.22,0-.45-.45-.22Zm.22-26.8c0-.22-.45-.45-.67-.45-.45,0-.45,.22-.22,.45,.22,.45,.45,.67,.67,.67s.22-.22,.22-.67Zm.45-3.35c0-.67-.22-1.34-.45-1.34-.22-.22-.45,.22-.45,1.12,0,.67,.22,1.34,.45,1.34,.45-.22,.45-.67,.45-1.12Zm.22-6.48c.45,.89,1.12,.22,1.12-1.12-.22-.45-.45-1.12-.45-1.34,0,0-.22,.22-.45,.89-.45,.45-.45,1.34-.22,1.56Zm1.34,3.35c0-.22-.22-.45-.67-.67-.67-.22-.89-.22-.67,.22,.22,.45,1.34,.89,1.34,.45Zm0,55.61c-.22,.45-.45,.67-.67,.67,0,0-.22-.22-.22-.67,0-.22,.22-.45,.67-.45,.22,0,.22,.22,.22,.45Zm2.23-27.92c-.89,0-1.12,.22-1.34,1.79,.22,.45-.22,.89-.45,1.12-.45,.22-.45,.45,0,.45,.89,0,.67,2.68,0,3.57-.45,.45-.67,.89-.67,1.12,0,.67,1.79,.67,2.46-.22,.89-.89,.89-6.7-.22-6.7-.22,0,0-.45,.45-.67q.67-.45-.22-.45Zm-1.12,21c.45,.22,.45,.45,.22,.89-.45,1.34-.67,1.34-.67-.22,0-.45,.22-.89,.45-.67Zm1.34-5.36c0,1.56-.45,3.13-.89,3.57-.22,.45-.45,.22-.45-.45,.22-.45,0-1.34-.22-1.79-.22-.45-.22-1.34,.45-2.23,.45-.89,.67-1.56,.45-1.79-.22-.22,0-.45,.45-.45s.45,.67,.22,3.13Zm-.67-18.09c0,.45,.22,.67,.67,.67,.22,0,.67-.22,.89-.67,0-.22-.22-.67-.89-.45-.22,0-.67,.22-.67,.45Zm1.79,1.12c0-.45-.45-.22-.89,0-.45,0-.89,.45-.89,.45,0,.22,.45,.22,.89,.22s.89-.22,.89-.67Zm.67-4.91c0-.89-.45-1.56-.89-1.79q-.67,0,0,.45t.22,.45c-.45,0-.67,.67-.67,1.34s.22,.89,.67,.89,.67-.45,.67-1.34Zm-.89-3.57c-.67,1.12-.67,1.34,.45,1.12,.45-.22,.89-.89,.89-1.34,.45-1.34-.45-1.34-1.34,.22Zm3.8-21c0-.45-.22-.89-.45-.89s-.45,.45-.22,.89c.22,.45,.45,.89,.67,.89v-.89Z"/><path class="cls-3" d="M938.61,71.01c-.45,0-1.56,0-2.9,.22-3.35,.22-6.92,.67-7.59,1.12-1.34,.67,.22,1.12,3.13,.89,1.79-.22,3.13,0,3.13,.22,0,.45-1.12,.67-2.46,.89-2.9,0-19.21,2.01-19.66,2.68-.22,.22-1.12,6.25-2.01,13.4-1.12,7.37-2.9,18.99-3.8,25.91-1.12,6.92-2.23,15.19-2.68,18.54-.45,3.35-2.46,17.2-4.69,30.6-1.79,13.62-3.8,26.36-4.02,28.37-.45,2.01-1.34,7.82-2.01,13.18-1.79,10.5-2.68,14.96-4.24,16.75-.67,1.56-2.68,2.23-2.01,.89q.45-.67-.22,0c-1.12,.89-2.23,.89-2.68-.45q-.22-.67-.67,0-.45,.45-.89-.22c-.45-.67-.89-.67-2.46-.45-2.01,.67-12.51-.67-13.18-1.79-1.34-2.01-1.56-5.36-.89-10.27,.89-7.59,4.91-32.83,8.93-57.85,1.34-7.59,2.46-14.74,2.68-15.63,.45-5.14,7.82-49.81,8.93-56.06q.45-1.56-1.34-1.34c-2.9,.67-22.34,3.57-32.39,5.14-5.81,.89-10.72,1.79-11.39,1.79-1.56,.45-1.79-.45-.22-1.56q.67-.45-.22-.22c-1.12,.22-1.34,.22-1.34-.67,0-.67,.22-1.34,.67-1.79,.67-.45,.67-.67-.22-.22-.89,.22-1.12,0-1.12-1.12,0-.89-.45-2.23-.89-2.9-1.12-1.79-4.24-9.6-4.24-10.94s2.68-2.9,5.81-3.8c5.81-1.34,33.06-6.03,41.54-7.15,1.12,0,5.81-.89,10.72-1.34,4.69-.67,10.05-1.12,11.61-1.56,1.79,0,4.91-.45,7.37-.89,4.69-.45,16.31-1.34,24.79-2.01,4.24,0,5.58,0,5.58,.45,0,.67,.22,.67,.67,0,.22-.45,1.12-.45,1.56-.45,.89,0,2.46,2.01,2.46,3.13-.22,.45,0,.67,.22,.67s.45,1.56,.45,3.57c.22,3.13,0,3.8-.67,2.9-.89-.67-5.36-.67-5.81,.22,0,.22,0,.67,.45,.67s.67,.45,.67,.67c0,.67-.67,.89-2.23,.89-1.34,0-2.46,.22-2.68,.45-.22,0-1.12,0-1.56-.45-.67,0-1.56,0-2.46,.45-.67,.67-1.56,.67-2.23,.67-.22-.22-1.12-.22-1.56,.22-.45,.22-.67,.45-.67,.22s-.89-.22-1.56,.22c-.89,.22-1.34,.22-1.34,0,0-.45-.45-.45-.89,0-.67,.22-1.56,.22-2.23,0-1.56-.67-1.79-.67-2.23,.22,0,.67,0,.89,.67,.67,.45-.22,.67-.22,.67,.22,0,.67-.89,.67-2.46,0-.67-.22-1.34,0-1.79,.45-.45,.45-.89,.45-1.34,.45-.22-.22-.67-.22-1.12,0-1.34,.67,.67,1.12,3.13,.67,1.79,0,2.68,0,2.68,.45s0,.22,.22-.22c.45-.45,1.34-.67,2.9-.22,1.34,0,2.23,0,2.68-.45,0-.22,.67-.67,1.12-.67,.89,0,.89,.22,.22,.67q-.67,.45,.67,.45c.89,0,1.56,0,1.56-.45,0-.22,.67-.22,1.56-.22s1.79,.22,2.01,.22,.22,.45-.22,.89c-.45,.67-.45,.89,.22,.89,.45,0,.89-.45,.89-.89,0-.67,.67-.89,1.79-.89,1.34,0,1.56,.22,1.34,.89-.22,.45,.22,.89,.89,.89,1.34,0,2.01,.89,.89,1.12Zm-47.57,94.03c-.67-.89-.89-.45-.89,1.79,0,1.34,0,2.23,.22,1.34,.22-.45,.45-1.12,.67-1.56,.22-.45,.22-.89,0-1.56Zm4.91-34.62c-.22-.45-.45-.45-.45,.22s.22,.89,.45,.67c.22,0,.22-.67,0-.89Zm.67-4.47c-.45-.67-.45-.45-.45,.22,0,.45,0,.89,.22,.67s.22-.67,.22-.89Zm21.22-52.04c-.22,0-.67-.22-1.12,0-.45,.22-.22,.45,.45,.45,.45,0,.89-.22,.67-.45Zm2.01-.22c0-.22-.45-.67-.67-.67s-.67,.45-.67,.67c0,.45,.45,.67,.67,.67s.67-.22,.67-.67Zm1.12-.67c-.22,0-.67,.45-.67,.67,0,.45,.22,.67,.45,.67s.67-.22,.89-.67c.22-.22,0-.67-.67-.67Zm5.14-.45c-1.56-.67-3.35-.22-3.35,.67-.22,.89,0,.89,2.01,.22,1.79-.45,2.23-.67,1.34-.89Zm2.46-9.16c.22,.45,.45,.67,.67,.22,.22-.22,1.79-.45,3.35-.67,2.01-.22,3.57,0,4.02,0,.89,.67,2.23-.22,2.23-1.34,0-.45-1.56-.45-8.26,.67-1.79,.22-2.23,.67-2.01,1.12Zm1.34,6.48c0-.45-.22-.67-.22-.67-.22,0-.45,.22-.67,.67-.22,.22-.22,.45,.22,.45s.67-.22,.67-.45Zm6.03-.45c-.45,0-.89-.22-1.34,0-.22,.22,0,.45,.45,.45,.67,0,.89-.22,.89-.45Zm1.12,3.57c0,.45-.45,.67-1.12,.67s-.89-.22-.89-.67c.22-.22,.89-.45,1.12-.45,.45,0,.89,.22,.89,.45Zm2.68-4.47c-1.12,0-2.23,0-2.01-.22,.67-.45,4.47-.89,4.47-.22,0,.22-1.12,.45-2.46,.45Zm6.48,1.34q.67,.45-2.9,.67c-1.79,.22-2.9-.22-2.68-.45,.22-.22,.67-.67,1.34-.67,.89-.22,1.34-.67,1.34-1.12s.45-.89,1.34-.89c1.12,0,1.56,.45,1.34,.89-.22,.45,0,1.12,.22,1.56Zm-2.46-7.37c.45,.22,.67,.45,.22,.45-.22,0-.89,.22-1.56,.45-.45,.22-.89,0-.89-.22,0-1.12,1.12-1.34,2.23-.67Zm6.25,7.59c0,.22-.22,.22-.45,.22-.45,0-.67-.45-.67-.45,0-.45,.22-.45,.67-.45,.22,.45,.45,.45,.45,.67Z"/></g><g><path class="cls-6" d="M443.05,271.14c-.11-.94-.47-.41-.3,1,.17,1.41,.64,1.82,.58,1.35,.36-.53,.66-1.54-.28-2.35Z"/><path class="cls-6" d="M433.82,293.11c-.53-.88-1.05-1.76-.69-2.29,.3-1-.11-.94-.47-.41-1.96,1.25-1.74,3.13,.86,3.7,1.35,.75,1.71,.22,.3-1Z"/><path class="cls-6" d="M450.78,272.36c.41-.06,.77-.6,1.13-1.13-.11-.94-.17-1.41-.58-1.35-.41,.06-1.19,.66-1.08,1.6,.06,.47,.11,.94,.53,.88Z"/><path class="cls-6" d="M460.2,291.51c-2.49,.38-4.97,.75-5.44,.35-.88-.35-3.84-.38-6.38-.47l-4.61,.22,3.95,1.32c2.18,.63,4.31,.78,4.67,.25,.41-.06,2.54,.09,4.67,.25,2.18,.63,4.31,.78,4.2-.16-.06-.47,.72-1.06,1.49-1.66,.83-.13-.06-.47-2.54-.09Z"/><path class="cls-6" d="M447.77,286.21c-.83,.13-1.6,.72-1.55,1.19,.06,.47,1.35,.75,3.84,.38q3.32-.5,1.96-1.25c-1.3-.28-3.01-.5-4.25-.31Z"/><path class="cls-6" d="M421.94,263.8c-.47-.41-1.35-.75-2.07,.31-.77,.6-.72,1.07,.22,1.88,2.18,.63,3.73-.56,1.85-2.19Z"/><path class="cls-6" d="M412.39,239.89c.83-.13,2.49-.38,4.2-.16,1.3,.28,2.13,.16,2.07-.31-.06-.47-1.35-.75-2.18-.63-.88-.34-3.37,.03-5.08-.19-1.66,.25-2.49,.38-2.38,1.32,.88,.35,2.18,.63,3.37-.03Z"/><path class="cls-6" d="M416.33,262.74c-.83,.13-.72,1.07-.66,1.54,.06,.47,.17,1.41,1,1.28,.83-.13,1.13-1.13,1.08-1.6-.06-.47-.58-1.35-1.41-1.22Z"/><path class="cls-6" d="M393.6,252.3c.06,.47,.17,1.41,.99,1.28,.83-.13,1.19-.66,1.13-1.13,0,0-.88-.35-1.35-.75-.83,.13-1.24,.19-.77,.6Z"/><path class="cls-6" d="M409.18,262.86c-1.13,1.13-2.38,1.32-2.49,.38-.05-.47-.52-.88-1.35-.75-2.9,.44-1.79,2.66,1.16,2.69,1.71,.22,3.31-.5,4.03-1.57,.72-1.06,.66-1.54-1.35-.75Z"/><path class="cls-6" d="M397.66,261.73c-.42,.06-.83,.13-.72,1.06,.28,2.35,4.53,2.66,4.72,.72,.25-1.47-1.93-2.1-4-1.79Z"/><path class="cls-6" d="M472.35,272.93c-1.85,2.19,.33,2.82,6.19,2.41,4.14-.63,4.97-.75,4.75-2.63-.28-2.35-1.57-2.63-6.08-1.47-.41,.06-1.77-.69-2.71-1.5-.88-.35-2.65-1.04-3.07-.97-.83,.13-.72,1.07-.66,1.54,.11,.94,1.05,1.75,1.88,1.63,.83-.13,.88,.35-.3,1Z"/><path class="cls-6" d="M446.83,271.04c-1.24,.19-1.66,.25-.61,2.01,.11,.94,1.05,1.76,1.82,1.16,2.43-.84,1.27-3.54-1.21-3.17Z"/><path class="cls-6" d="M497.13,300.76c-.36,.53-1.66,.25-3.43-.44-1.82-1.16-3.48-.91-4.25-.31-.77,.6-2.38,1.32-3.26,.97-1.24,.19-1.6,.72-.72,1.07,.94,.81,3.95,1.31,6.85,.88,4.61-.22,5.86-.41,5.75-1.35-.11-.94-.58-1.35-.94-.82Z"/><path class="cls-6" d="M468.74,274.43c.77-.59,1.49-1.66,1.38-2.6-.11-.94-1-1.28-.94-.82-.83,.13-1.66,.25-1.71-.22-.88-.35-1.77-.69-2.54-.09-1.19,.66-1.13,1.13-.08,2.88q1.52,2.16,3.9,.85Z"/><path class="cls-6" d="M480.69,300.85c-2.9,.44-2.84,.91-.25,1.47,.88,.35,1.3,.28,1.6-.72,.36-.53-.53-.88-1.36-.75Z"/><path class="cls-6" d="M457.82,285.65c-.41,.06-1.19,.66-1.13,1.13,.11,.94,.17,1.41,.58,1.35,.41-.06,.77-.6,1.08-1.6,.36-.53-.11-.94-.53-.88Z"/><path class="cls-6" d="M460.23,273.8c2.85-.91,1.16-4.48-1.74-4.04-.41,.06-.72,1.06-.14,2.41,.17,1.41,.64,1.82,1.88,1.63Z"/><path class="cls-6" d="M468.71,299.31c-.83,.13-1.19,.66-1.19,.66,.06,.47,.52,.88,1.41,1.22,.41-.06,.83-.13,.77-.6-.11-.94-.58-1.35-.99-1.28Z"/><path class="cls-6" d="M470.58,286.59c-2.6-.57-5.55-.6-6.74,.06-1.96,1.25-1.55,1.19,.58,1.35,1.71,.22,4.67,.25,6.74-.06l3.67-1.03-4.25-.31Z"/><path class="cls-6" d="M467.71,290.85c-1.24,.19-2.43,.85-3.15,1.91-1.08,1.6,1.82,1.16,3.73-.56q1.49-1.66-.58-1.35Z"/><path class="cls-6" d="M887.88,282.85q-2.24-1.1-.25-5.71c1.69-3.6,1.93-5.08,1.05-5.42-.88-.35-1.1-2.23,.53-6.3,1.77-6.49,2.07-14.67,.17-20.12-.86-3.7-1.33-4.1-6.88-4.7-7.68-.75-44.09-1.95-80.85-2.61-17.38-.72-35.52-.85-40.19-1.1-7.57,.19-43.4,.34-53.98,.03-2.07,.31-12.6,.47-23.12,.63-13.42,.59-19.7,1.06-19.64,1.53,0,.01,0,.03,0,.04-.58-.02-1.16-.04-1.74-.05-.62-1.13-4.55-1.05-13.97-.96-5.69,.21-11.2,.18-14.69,.22-3.46-.08-6.96-.15-10.48-.22-.96-.31-2.73-.31-4.72-.09-.38,0-.75-.01-1.13-.02-17.38-.72-35.52-.85-40.19-1.1-7.57,.19-43.4,.34-53.98,.03-2.07,.31-12.6,.47-23.12,.63-13.42,.59-19.7,1.06-19.64,1.53,.06,.47-.66,1.54-1.49,1.66,0,0-.52-.88-.17-1.41-.17-1.41-3.95-1.32-14.06-1.22-8.4,.31-16.44,.09-18.09,.34-1.71-.22-3.32,.5-3.32,.5,.11,.94-1.49,1.66-3.09,2.38-1.66,.25-3.37,.03-3.43-.44-.11-.94,.3-1,.72-1.06,.89,.34,1.71,.22,2.49-.38,2.21-2.73-8.62-1.57-13.01,.53-3.56,1.98-7.29,2.54-10.77,1.63-.83,.13-3.84-.38-6.74,.06-4.2,.16-5.44,.34-4.45,1.63q.58,1.35-.41,.06c-.94-.81-2.18-.63-3.73,.56-1.55,1.19-1.96,1.25-1.3-.28,.14-2.41-.8-3.23-2.29-1.57-1.13,1.13-1.55,1.19-1.71-.22-.17-1.41-.64-1.82-1.71-.22-1.44,2.13-1.05,5.42,.3,6.17,.94,.81,1.63,3.1,2.02,6.39,.08,4.29,.14,4.76,1.74,4.04,1.13-1.13,2.02-.78,2.13,.16,.11,.94,1,1.28,2.18,.63,1.19-.66,2.43-.85,2.96,.03,.47,.41,.88,.34,1.66-.25,.41-.06,1.66-.25,2.18,.63,1.3,.28,3.48,.91,5.55,.6,1.71,.22,5.03-.28,7.15-.12,1.71,.22,4.2-.16,5.86-.41,4.61-.22,4.06,2.26-.08,2.88-3.67,1.03-4.34,2.57-2.04,4.14,.83-.13,3.78-.09,7.1-.59,4.14-.63,5.33-1.29,4.34-2.57-.53-.88-1.52-2.16-2.76-1.97-.83,.13-.41,.06,1.19-.66,1.71,.22,2.65,1.03,3.76,3.26,.69,2.29,1.16,2.7,1.46,1.69,.77-.59,.19-1.94,.08-2.88-.99-1.29-.58-1.35,1.19-.66,1.71,.22,2.24,1.1,1.57,2.63-1.44,2.13-.14,2.41,7.85,2.16,8.76-.84,15.55-.44,16.13,.91,.06,.47,1.35,.75,2.54,.09,.77-.6,2.85-.91,4.2-.16,.88,.34,4.25,.31,6.74-.06,2.9-.44,6.68-.53,8.81-.37q4.67,.25,2.82,2.44c-1.02,2.07-2.26,2.26-2.38,1.32-.06-.47-.94-.81-1.77-.69-.83,.13-1.71-.22-2.24-1.1-.69-2.29-2.85,.91-2.46,4.2,.22,1.88,.69,2.29,1.05,1.76-.11-.94,1.44-2.13,2.26-2.26q2.07-.31,.94,.82c-1.6,.72-2.15,3.2-.55,2.47,1.6-.72,3.37-.03,2.65,1.03,.11,.94,.52,.88,2.96,.03,2.43-.85,3.26-.97,2.95,.03-.36,.53,.17,1.41,1,1.28,.77-.6,1.55-1.19,1.49-1.66-.11-.94,.3-1,1.13-1.13,.47,.41,.99,1.29,.28,2.35-.36,.53,.94,.81,3.37-.03,2.43-.85,4.14-.63,4.67,.25,.58,1.35,1,1.28,2.18,.63,1.02-2.07,5.94-3.29,5.28-1.75-.36,.53,.17,1.41,1.46,1.69,.88,.35,1.24-.19,.72-1.07-1.1-2.22,.14-2.41,2.9-.44,1.35,.75,2.6,.57,3.37-.03,.36-.53,.83-.13,.11,.94-.66,1.54,.17,1.41,1.77,.69,1.19-.66,2.43-.85,2.54,.09,.11,.94,.94,.81,2.18,.63,1.19-.66,2.02-.78,2.07-.31-.25,1.47,.58,1.35,2.24,1.1,1.66-.25,3.37-.03,4.31,.78,1.41,1.22,1,1.28-1.55,1.19-13.01,.53-14.67,.78-13.73,1.6,.47,.41,.17,1.41-.72,1.06-1.24,.19-2.54-.09-2.96-.03-.42,.06-.88-.35-.99-1.28-.11-.94-1.88-1.63-3.95-1.32-1.6,.72-2.43,.84-.72,1.06,1.24-.19,2.6,.57,2.71,1.5,.17,1.41-.66,1.54-2.85,.91-1.35-.75-2.71-1.5-2.82-2.45-.06-.47-.47-.41-1.19,.66-1.49,1.66-8.01,3.6-8.23,1.72-.06-.47,.3-1,1.13-1.13,.83-.13,.77-.59-.22-1.88-.88-.35-2.13-.16-4.03,1.57-1.85,2.19-2.26,2.26-2.43,.85-.11-.94-1.05-1.76-1.46-1.69-.41,.06-.72,1.06-.19,1.94,1.05,1.76,.22,1.88-2.85,.91-1.77-.69-2.18-.63-2.02,.78,.11,.94,1.05,1.76,1.47,1.69,.83-.13,1.24-.19,.88,.35-.36,.53-2.02,.78-3.67,1.03-2.18-.63-2.65-1.03-1.16-2.69q1.13-1.13-1.1-2.22c-1.35-.75-2.18-.63-1.66,.25,.47,.41,.11,.94-1.13,1.13-1.24,.19-2.13-.16-2.6-.56-.06-.47-1.71-.22-3.01-.5-2.07,.31-3.26,.97-3.2,1.44,.06,.47,1.82,1.16,3.48,.91,1.24-.19,3.78-.1,5.08,.19,1.88,1.63,1.93,2.1-4.34,2.57-4.56,.69-6.57,1.47-6.46,2.41,.47,.41,2.18,.63,4.25,.31,1.71,.22,3.43,.44,3.48,.91,.05,.47,2.13,.16,4.56-.69,4.09-1.1,4.97-.75,5.19,1.13,.11,.94,.58,1.35,.94,.82,.77-.6,1.66-.25,2.13,.16,.11,.94,1.35,.75,1.77,.69,.3-1,.77-.6,.83-.13,.06,.47,.94,.81,1.77,.69,.83-.13,1.6-.72,1.55-1.19,0,0,.77-.6,2.07-.31,1.24-.19,2.18,.63,2.4,2.51,.28,2.35-.08,2.88-1.38,2.6-.88-.35-1.66,.25-1.96,1.25-.3,1,1.41,1.22,3.01,.5,0,0,1.71,.22,3.9,.85,2.54,.09,12.29,.53,18.62,.53,.83-.13,2.54,.09,3.84,.38,.83-.13,4.67,.25,9.34,.5,13.06-.06,31.21,.07,40.08,.16,8.92,.56,27.07,.69,57.46,.88,18.62,.53,49.67-.81,56.24-2.28,.15-.02,.29-.05,.44-.08,4.01,.16,11.23,.44,16.28,.44,.83-.13,2.54,.09,3.84,.38,.83-.13,4.67,.25,9.34,.5,13.06-.06,31.21,.07,40.08,.16,8.92,.56,27.07,.69,57.46,.88,18.62,.53,49.67-.81,56.24-2.28,6.22-.94,10.91-4.04,11.05-6.46q2.65-13.32,0-14.35Zm-456.6-40.07q-3.89-.85-1.93-2.1c.77-.6,2.13,.16,3.01,.5q1.88,1.63-1.08,1.6Zm26.96-.25c-.83,.13-1.35-.75-1.41-1.22-.06-.47,.25-1.47,1.08-1.6,.41-.06,.94,.81,1.05,1.76,.52,.88,.17,1.41-.72,1.06Zm7.51-.66c-.41,.06-.83,.13-.88-.35,0,0-.11-.94,.72-1.06,.36-.53,.77-.6,1.3,.28,.06,.47-.72,1.07-1.13,1.13Zm3.15,19.62c-1.13,1.13-1.71-.22-.64-1.82,1.49-1.66,1.55-1.19,1.66-.25,.11,.94-.19,1.94-1.02,2.07Zm5.33-8.46c-1.24,.19-1.35-.75-1.35-.75-.06-.47-.11-.94,1.13-1.13,.41-.06,.94,.82,.99,1.28,.06,.47-.3,1-.77,.6Zm25.83,8.06c-.83,.13-1.3-.28-1.35-.75-.11-.94,.3-1,1.13-1.13,.47,.41,1.35,.75,1.41,1.22,.06,.47-.77,.6-1.19,.66Zm9.83-2.44c.36-.53,.77-.6,.41-.06-.3,1,.22,1.88,.8,3.23q1.41,1.22-.42,.06c-2.71-1.5-2.76-1.97-.8-3.23Zm-.72,15.42c-2.07,.31-2.71-1.5-1.57-2.63,.36-.53,1.24-.19,1.77,.69,.99,1.28,.64,1.82-.19,1.94Zm4.7-3.1c-.41,.06-.89-.35-.94-.81-.06-.47-.58-1.35-1.88-1.63-1.71-.22-1.77-.69,.72-1.06,.83-.13,2.13,.16,2.18,.63l.22,1.88c.05,.47-.3,1-.3,1Zm-10.69,20.28c-.83,.13-1.35-.75-1.46-1.69-.17-1.41,.66-1.54,1.35,.75,.94,.82,.58,1.35,.11,.94Zm6.63-1c.52,.88,.17,1.41-.3,1-.83,.13-1.35-.75-1.41-1.22-.22-1.88,1.02-2.07,1.71,.22Zm10.69,8.43c-.52-.88-1.41-1.22-1.35-.75,.28,2.35-10.5,3.98-12.38,2.35-1.82-1.16-2.27-4.92-1.02-5.11,.42-.06,1.3,.28,2.24,1.1,1.82,1.16,6.85,.88,6.63-1-.11-.94,.3-1,.83-.13,.47,.41,1.41,1.22,2.18,.63,2.96,.03,3.43,.44,3.65,2.32q.22,1.88-.77,.59Zm3.59,1.85c-.83,.13-1.35-.75-1.46-1.69-.11-.94-.22-1.88,.19-1.94,0,0,.94,.82,1.05,1.76,.53,.88,1.05,1.76,.22,1.88Zm2.02-.78c-.88-.35-1.41-1.22-1.46-1.69-.11-.94,.25-1.47,1.08-1.6,.41-.06,.94,.82,1,1.28,.58,1.35-.19,1.94-.61,2.01Zm7.26,.82c-1.66,.25-2.54-.09-2.65-1.03-.11-.94,.25-1.47,1.49-1.66,1.24-.19,2.54,.09,2.65,1.03q.11,.94,.77-.6t.83-.13c-.3,1-1.44,2.13-3.09,2.38Zm7.15-.13c-.83,.13-2.18-.63-2.71-1.5-.69-2.29-.28-2.35,1.96-1.25,3.12,1.44,3.34,3.32,.74,2.76Zm10.14-17.8c-3.73,.56-7.57,.19-8.09-.69-.88-.35,.36-.53,3.73-.56,2.96,.03,6.32,0,7.98-.25,1.66-.25,2.9-.44,3.01,.5,.06,.47-3.26,.97-6.63,1Zm8.92,.57c-.83,.13-1.24,.19-1.3-.28-.06-.47,.3-1,1.08-1.6,.36-.53,.77-.59,.89,.35,.06,.47-.25,1.47-.66,1.54Zm8.7-1.32c.06,.47-1.13,1.13-2.38,1.32-.83,.13-1.66,.25-2.18-.63-.06-.47,1.13-1.13,2.38-1.32,1.66-.25,2.54,.09,2.18,.63Zm4.89,2.13c-.3,1-.66,1.54-1.08,1.6-.83,.13-.28-2.35,.5-2.95,.77-.59,.83-.13,.58,1.35Zm6.49,15.76c-.83,.13-1.66,.25-1.66,.25-.06-.47,.72-1.06,1.49-1.66,.77-.6,1.66-.25,1.71,.22,.06,.47-.72,1.06-1.55,1.19Zm.66-15.89c-2.49,.38-3.89-.85-2.35-2.04,.36-.53,2.02-.78,2.96,.03,1.3,.28,1.77,.69,1.77,.69-.41,.06-1.6,.72-2.38,1.32Zm123.84,14.79c-.09-.16-.2-.29-.31-.41,.19-.36,.31-.71,.33-1.05,.06-.28,.1-.53,.16-.8,.35,.35,.5,.87,.59,1.66q.22,1.88-.77,.59Zm3.59,1.85c-.83,.13-1.35-.75-1.46-1.69-.11-.94-.22-1.88,.19-1.94,0,0,.94,.82,1.05,1.76,.53,.88,1.05,1.76,.22,1.88Zm2.02-.78c-.88-.35-1.41-1.22-1.46-1.69-.11-.94,.25-1.47,1.08-1.6,.41-.06,.94,.82,1,1.28,.58,1.35-.19,1.94-.61,2.01Zm7.26,.82c-1.66,.25-2.54-.09-2.65-1.03-.11-.94,.25-1.47,1.49-1.66,1.24-.19,2.54,.09,2.65,1.03q.11,.94,.77-.6,.66-1.54,.83-.13c-.3,1-1.44,2.13-3.09,2.38Zm7.15-.13c-.83,.13-2.18-.63-2.71-1.5-.69-2.29-.28-2.35,1.96-1.25,3.12,1.44,3.34,3.32,.74,2.76Zm10.14-17.8c-3.73,.56-7.57,.19-8.09-.69-.88-.35,.36-.53,3.73-.56,2.96,.03,6.32,0,7.98-.25,1.66-.25,2.9-.44,3.01,.5,.06,.47-3.26,.97-6.63,1Zm8.92,.57c-.83,.13-1.24,.19-1.3-.28-.06-.47,.3-1,1.08-1.6,.36-.53,.77-.59,.88,.35,.06,.47-.25,1.47-.66,1.54Zm8.7-1.32c.06,.47-1.13,1.13-2.38,1.32-.83,.13-1.66,.25-2.18-.63-.06-.47,1.13-1.13,2.38-1.32,1.66-.25,2.54,.09,2.18,.63Zm4.89,2.13c-.3,1-.66,1.54-1.08,1.6-.83,.13-.28-2.35,.5-2.95,.77-.59,.83-.13,.58,1.35Zm6.49,15.76c-.83,.13-1.66,.25-1.66,.25-.06-.47,.72-1.06,1.49-1.66,.77-.6,1.66-.25,1.71,.22,.06,.47-.72,1.06-1.55,1.19Zm.66-15.89c-2.49,.38-3.89-.85-2.35-2.04,.36-.53,2.02-.78,2.96,.03,1.3,.28,1.77,.69,1.77,.69-.41,.06-1.6,.72-2.38,1.32Z"/></g><g><path class="cls-3" d="M598.52,257.79c4.46,0,7.74,1.68,9.89,4.75l6.66-5.56c-2.99-4.63-8.9-7.18-16.08-7.18-15.06,0-24.97,10.48-24.68,24.32,.22,10.42,8.02,17.6,20.41,17.6,6.95,0,12.81-2.03,16.99-7.01l-5.68-5.67c-2.94,3.24-6.56,4.69-10.67,4.69-7.3,0-11.44-4.05-11.57-10.19-.19-8.74,5.57-15.75,14.72-15.75Z"/><path class="cls-3" d="M651.58,249.8c-14.94,0-24.85,10.48-24.56,24.32,.22,10.42,7.79,17.6,20.12,17.6,14.94,0,24.85-10.48,24.56-24.32-.22-10.42-7.79-17.6-20.12-17.6Zm-3.8,33.93c-7.12,0-11.15-4.11-11.28-10.13-.18-8.57,5.28-15.81,14.43-15.81,7.12,0,11.15,4.11,11.28,10.13,.18,8.57-5.28,15.81-14.43,15.81Z"/><path class="cls-3" d="M707.86,250.5h-16.97l-7.25,40.53h19.81c15,0,25.05-9.32,24.75-23.62-.22-10.36-7.83-16.91-20.34-16.91Zm-4.29,32.83h-9.15l4.51-25.13h8.05c7.64,0,11.6,3.71,11.73,9.73,.19,8.8-5.41,15.4-15.14,15.4Z"/><polygon class="cls-3" points="740.15 291.03 749.59 291.03 756.84 250.5 747.4 250.5 740.15 291.03"/><polygon class="cls-3" points="799.44 275.92 783.79 250.5 776.03 250.5 768.78 291.03 778.04 291.03 782.6 265.67 798.26 291.03 805.96 291.03 813.21 250.5 803.94 250.5 799.44 275.92"/><path class="cls-3" d="M853.3,282.29c-2.12,.98-4.31,1.45-6.69,1.45-7.7,0-11.84-4.11-11.97-10.19-.19-8.92,5.75-15.75,15.24-15.75,4.52,0,7.9,1.27,10.69,4.52l6.6-5.44c-3.57-4.57-9.3-7.06-17.06-7.06-15.35,0-25.26,10.48-24.97,24.32,.22,10.48,8.13,17.6,20.41,17.6,5.85,0,11.37-1.79,15.42-4.92l3.01-16.67h-8.57l-2.12,12.16Z"/></g></g><g><ellipse class="cls-3" cx="197.65" cy="225.33" rx="114.85" ry="69.96"/><g><g><polygon class="cls-2" points="50 137.87 50 164.71 183.54 241.81 183.54 214.96 50 137.87"/><polygon class="cls-1" points="128.48 137.87 128.48 164.71 183.54 132.92 183.54 106.08 128.48 137.87"/><polygon class="cls-6" points="183.54 169.65 128.48 137.87 183.54 106.08 183.54 60.77 50 137.87 183.54 214.96 183.54 169.65"/><polygon class="cls-5" points="128.48 137.87 50 137.87 183.54 60.77 183.54 106.08 128.48 137.87"/></g><g><polygon class="cls-2" points="345.3 137.87 345.3 164.71 211.76 241.81 211.76 214.96 345.3 137.87"/><polygon class="cls-1" points="266.81 137.87 266.81 164.71 211.76 132.92 211.76 106.08 266.81 137.87"/><polygon class="cls-6" points="211.76 169.65 266.81 137.87 211.76 106.08 211.76 60.77 345.3 137.87 211.76 214.96 211.76 169.65"/><polygon class="cls-5" points="266.81 137.87 345.3 137.87 211.76 60.77 211.76 106.08 266.81 137.87"/></g></g></g></g></svg>