<?xml version="1.0" encoding="UTF-8"?><svg id="Layer_1" xmlns="http://www.w3.org/2000/svg" viewBox="0 0 16 16"><defs><style>.cls-1{fill:#fd8c71;}.cls-2{fill:#a70d4e;}.cls-3{fill:#111537;}.cls-4{fill:#de253a;}.cls-5{fill:#ce1842;}</style></defs><ellipse class="cls-3" cx="8" cy="10.56" rx="6.22" ry="3.79"/><g><g><polygon class="cls-2" points="0 5.82 0 7.28 7.24 11.46 7.24 10 0 5.82"/><polygon class="cls-1" points="4.25 5.82 4.25 7.28 7.24 5.56 7.24 4.1 4.25 5.82"/><polygon class="cls-5" points="7.24 7.55 4.25 5.82 7.24 4.1 7.24 1.65 0 5.82 7.24 10 7.24 7.55"/><polygon class="cls-4" points="4.25 5.82 0 5.82 7.24 1.65 7.24 4.1 4.25 5.82"/></g><g><polygon class="cls-2" points="16 5.82 16 7.28 8.76 11.46 8.76 10 16 5.82"/><polygon class="cls-1" points="11.75 5.82 11.75 7.28 8.76 5.56 8.76 4.1 11.75 5.82"/><polygon class="cls-5" points="8.76 7.55 11.75 5.82 8.76 4.1 8.76 1.65 16 5.82 8.76 10 8.76 7.55"/><polygon class="cls-4" points="11.75 5.82 16 5.82 8.76 1.65 8.76 4.1 11.75 5.82"/></g></g></svg>